<?xml version="1.0" encoding="UTF-8"?>
<svg id="_レイヤー_2" data-name="レイヤー 2" xmlns="http://www.w3.org/2000/svg" viewBox="0 0 800 800">
  <g id="shape">
    <path fill="white" d="M430,1.11c-9.9-.73-19.91-1.11-30-1.11s-20.1.38-30,1.11C163.1,16.45,0,189.18,0,400s163.1,383.55,370,398.89c9.9.73,19.91,1.11,30,1.11s20.1-.38,30-1.11c49.75-3.69,96.97-16.48,140-36.71,21.07-9.91,41.13-21.6,60-34.88,95.08-66.94,159.68-174.24,168.87-297,.75-10,1.13-20.1,1.13-30.29s-.37-19.9-1.09-29.71h-368.91V1.11ZM370,202.24c-96.22,14.48-170,97.5-170,197.76s73.78,183.28,170,197.76v40.38c-118.39-14.76-210-115.75-210-238.14s91.61-223.37,210-238.14v40.38ZM370,536.77c-62.9-13.73-110-69.75-110-136.77s47.1-123.03,110-136.77v273.53ZM60,400c0-177.67,136.28-323.48,310-338.67v40.16C218.4,116.54,100,244.44,100,400s118.4,283.46,270,298.51v40.16c-173.72-15.19-310-161-310-338.67ZM570,694.5c-41.85,24.21-89.33,39.73-140,44.16v-308.38h140v264.21Z"/>
  </g>
</svg>