<?xml version="1.0" encoding="UTF-8"?>
<svg id="_レイヤー_2" data-name="レイヤー 2" xmlns="http://www.w3.org/2000/svg" xmlns:xlink="http://www.w3.org/1999/xlink" viewBox="0 0 193.32 116.9">
  <defs>
    <style>
      .cls-1 {
        fill: #d8d8d9;
      }

      .cls-2 {
        fill: url(#_名称未設定グラデーション_11-3);
      }

      .cls-3 {
        fill: url(#_名称未設定グラデーション_11-2);
      }

      .cls-4 {
        fill: url(#_名称未設定グラデーション_8-11);
      }

      .cls-5 {
        fill: url(#_名称未設定グラデーション_8-10);
      }

      .cls-6 {
        fill: #d5687d;
      }

      .cls-7 {
        fill: #e5e5e4;
      }

      .cls-8 {
        fill: url(#_名称未設定グラデーション_8);
      }

      .cls-9 {
        fill: #4077a3;
      }

      .cls-10 {
        fill: url(#_名称未設定グラデーション_8-4);
      }

      .cls-11 {
        fill: url(#_名称未設定グラデーション_8-6);
      }

      .cls-12 {
        fill: url(#_名称未設定グラデーション_8-3);
      }

      .cls-13 {
        fill: url(#_名称未設定グラデーション_8-9);
      }

      .cls-14 {
        fill: url(#_名称未設定グラデーション_8-8);
      }

      .cls-15 {
        fill: url(#_名称未設定グラデーション_8-5);
      }

      .cls-16 {
        fill: url(#_名称未設定グラデーション_8-7);
      }

      .cls-17 {
        fill: url(#_名称未設定グラデーション_8-2);
      }

      .cls-18 {
        fill: #6a8e74;
      }

      .cls-19 {
        fill: #b2b1b1;
      }

      .cls-20 {
        fill: url(#_名称未設定グラデーション_11);
      }

      .cls-21 {
        fill: #b39135;
      }
    </style>
    <linearGradient id="_名称未設定グラデーション_8" data-name="名称未設定グラデーション 8" x1="27.25" y1="39.72" x2="30.7" y2="39.72" gradientUnits="userSpaceOnUse">
      <stop offset="0" stop-color="#d8d8d9"/>
      <stop offset="1" stop-color="#b2b1b1"/>
    </linearGradient>
    <linearGradient id="_名称未設定グラデーション_8-2" data-name="名称未設定グラデーション 8" x1="96.85" y1="20.15" x2="100.3" y2="20.15" xlink:href="#_名称未設定グラデーション_8"/>
    <linearGradient id="_名称未設定グラデーション_8-3" data-name="名称未設定グラデーション 8" x1="44.22" y1="30.89" x2="62.73" y2="30.89" xlink:href="#_名称未設定グラデーション_8"/>
    <linearGradient id="_名称未設定グラデーション_11" data-name="名称未設定グラデーション 11" x1="70.43" y1="23.1" x2="74.4" y2="23.1" gradientUnits="userSpaceOnUse">
      <stop offset="0" stop-color="#b2b1b1"/>
      <stop offset="1" stop-color="#d8d8d9"/>
    </linearGradient>
    <linearGradient id="_名称未設定グラデーション_8-4" data-name="名称未設定グラデーション 8" x1="150.32" y1="42.52" x2="153.77" y2="42.52" xlink:href="#_名称未設定グラデーション_8"/>
    <linearGradient id="_名称未設定グラデーション_8-5" data-name="名称未設定グラデーション 8" x1="16.87" y1="67.88" x2="20.32" y2="67.88" xlink:href="#_名称未設定グラデーション_8"/>
    <linearGradient id="_名称未設定グラデーション_8-6" data-name="名称未設定グラデーション 8" x1="91.26" y1="83.81" x2="94.71" y2="83.81" xlink:href="#_名称未設定グラデーション_8"/>
    <linearGradient id="_名称未設定グラデーション_8-7" data-name="名称未設定グラデーション 8" x1="110.87" y1="102.43" x2="114.32" y2="102.43" xlink:href="#_名称未設定グラデーション_8"/>
    <linearGradient id="_名称未設定グラデーション_11-2" data-name="名称未設定グラデーション 11" x1="57.9" y1="95.97" x2="64.8" y2="95.97" xlink:href="#_名称未設定グラデーション_11"/>
    <linearGradient id="_名称未設定グラデーション_8-8" data-name="名称未設定グラデーション 8" x1="74.47" y1="105.15" x2="81.15" y2="105.15" xlink:href="#_名称未設定グラデーション_8"/>
    <linearGradient id="_名称未設定グラデーション_8-9" data-name="名称未設定グラデーション 8" x1="170.55" y1="98.31" x2="174.07" y2="98.31" xlink:href="#_名称未設定グラデーション_8"/>
    <linearGradient id="_名称未設定グラデーション_11-3" data-name="名称未設定グラデーション 11" x1="29.39" y1="72.28" x2="34.97" y2="72.28" xlink:href="#_名称未設定グラデーション_11"/>
    <linearGradient id="_名称未設定グラデーション_8-10" data-name="名称未設定グラデーション 8" x1="11.44" y1="74.27" x2="19.68" y2="74.27" xlink:href="#_名称未設定グラデーション_8"/>
    <linearGradient id="_名称未設定グラデーション_8-11" data-name="名称未設定グラデーション 8" x1="25.68" y1="114.48" x2="29.13" y2="114.48" xlink:href="#_名称未設定グラデーション_8"/>
  </defs>
  <g id="contents">
    <g>
      <g>
        <path class="cls-21" d="M27.25,37.44l-18.65-10.77c-.88-.51-.77-1.4.25-1.99L40.79,6.23c1.02-.59,2.57-.65,3.45-.14l18.65,10.77c.88.51.77,1.4-.25,1.99l-31.95,18.45c-1.02.59-2.57.65-3.45.14Z"/>
        <path class="cls-1" d="M8.59,26.67c-.38-.22-.57-.51-.59-.81h0v4.35h0c.02.3.22.59.59.81l18.65,10.77v-4.35l-18.65-10.77Z"/>
        <path class="cls-19" d="M63.49,17.73c0,.39-.29.8-.84,1.12l-31.95,18.45v4.35l31.95-18.45c.56-.32.84-.73.84-1.12h0v-4.35h0Z"/>
        <path class="cls-8" d="M27.25,37.44v4.35c.88.51,2.43.45,3.45-.14v-4.35c-1.02.59-2.57.65-3.45.14Z"/>
      </g>
      <g>
        <path class="cls-21" d="M96.85,17.87l-12.37-7.14c-.88-.51-.77-1.4.25-1.99L99.01.49c1.02-.59,2.57-.65,3.45-.14l12.37,7.14c.88.51.77,1.4-.25,1.99l-14.29,8.25c-1.02.59-2.57.65-3.45.14Z"/>
        <path class="cls-1" d="M84.48,10.73c-.44-.26-.64-.61-.59-.97h0v4.35h0c-.05.36.15.71.59.97l12.37,7.14v-4.35l-12.37-7.14Z"/>
        <path class="cls-19" d="M115.43,8.41c-.02.38-.31.77-.84,1.07l-14.29,8.25v4.35l14.29-8.25c.53-.31.82-.7.84-1.08h0v-4.35h0Z"/>
        <path class="cls-17" d="M96.85,17.87v4.35c.88.51,2.43.45,3.45-.14v-4.35c-1.02.59-2.57.65-3.45.14Z"/>
      </g>
      <g>
        <path class="cls-19" d="M90.75,16.49v1.16c-3.97,2.93-6.83,7.47-7.46,12.04-.14,1.01-.17,1.99-.08,2.92.02-.24.05-.49.08-.74.73-5.23,4.36-10.42,9.24-13.2v-2.18h-1.78Z"/>
        <g>
          <g>
            <path class="cls-12" d="M61.35,27.25c-.95,1.82-2.95,3.13-5.64,3.69-2.64.55-5.44.28-7.13-.7,0,0,0,0,0,0h0v-2.18l-4.36,2.51v2.18s0,0,0,0c3.05,1.76,8.04,2.27,12.72,1.29,2.21-.46,4.16-1.2,5.79-2.16v-4.64h-1.38Z"/>
            <path class="cls-19" d="M61.43,27.1c-.02.05-.05.1-.08.15h1.38v4.64c1.95-1.16,3.41-2.63,4.24-4.33.69-1.43,1.91-2.39,3.46-2.78v-3.34c-3.53.51-7.3,2.18-9,5.67Z"/>
            <path class="cls-20" d="M73.22,21.25c-.88-.02-1.83.04-2.79.18v3.34c.55-.14,1.15-.21,1.77-.19.75.02,1.5.14,2.2.37v-3.63c-.39-.04-.78-.06-1.18-.07Z"/>
            <path class="cls-1" d="M77.96,27.83c.31-2.61-1.37-4.35-3.57-5.06v2.18c1.66.54,3.03,1.67,3.46,3.32.03-.14.07-.29.11-.43Z"/>
            <path class="cls-1" d="M85.79,40.58l-2.73,1.57c-3.37-1.95-5.33-5.15-5.63-9.06-.36,4.88,1.65,8.94,5.63,11.23l4.35-2.51c-.6-.35-1.15-.76-1.63-1.24Z"/>
          </g>
          <path class="cls-7" d="M83.29,29.69c.73-5.23,4.36-10.42,9.24-13.2l-3.74-2.2c-3.18,1.81-5.87,4.31-7.84,7.16-1.93-1.45-4.74-2.31-7.73-2.37-4.09-.08-9.64,1.4-11.79,5.85-.92,1.9-2.95,3.26-5.72,3.84-2.64.55-5.44.28-7.13-.7h0s-4.36,2.51-4.36,2.51h0c3.05,1.76,8.04,2.27,12.72,1.3,4.86-1.01,8.51-3.38,10.02-6.49.94-1.94,2.85-3.03,5.24-2.98,3.11.06,6.18,1.99,5.76,5.43-.18.68-.32,1.38-.42,2.07-.74,5.33,1.27,9.8,5.52,12.25l4.35-2.51c-3.2-1.85-4.75-5.57-4.14-9.95Z"/>
        </g>
      </g>
      <g>
        <path class="cls-9" d="M125.48,23.77l28.96-16.72c1.02-.59,2.57-.65,3.45-.14l25.08,14.48c.88.51.77,1.4-.25,1.99l-28.96,16.72c-1.02.59-2.57.65-3.45.14l-25.08-14.48c-.88-.51-.77-1.4.25-1.99Z"/>
        <path class="cls-1" d="M125.23,25.76c-.41-.24-.6-.55-.59-.88h0v4.35h0c0,.33.18.65.59.89l25.08,14.48v-4.35l-25.08-14.48Z"/>
        <path class="cls-19" d="M183.57,22.19c.03.41-.25.85-.84,1.19l-28.96,16.72v4.35l28.96-16.72c.59-.34.87-.78.84-1.19h0v-4.35h0Z"/>
        <path class="cls-10" d="M150.32,40.24v4.35c.88.51,2.43.45,3.45-.14v-4.35c-1.02.59-2.57.65-3.45.14Z"/>
      </g>
      <g>
        <polygon class="cls-19" points="134.95 32.46 134.95 34.63 120.79 42.81 126.45 46.07 140.61 37.9 140.61 35.72 134.95 32.46"/>
        <polygon class="cls-7" points="126.45 43.9 120.79 40.63 134.95 32.46 140.61 35.72 126.45 43.9"/>
      </g>
      <g>
        <path class="cls-18" d="M16.87,65.6l-12.37-7.14c-.88-.51-.77-1.4.25-1.99l14.29-8.25c1.02-.59,2.57-.65,3.45-.14l12.37,7.14c.88.51.77,1.4-.25,1.99l-14.29,8.25c-1.02.59-2.57.65-3.45.14Z"/>
        <path class="cls-1" d="M4.5,58.46c-.41-.24-.6-.55-.59-.89h0v4.35h0c0,.33.18.65.59.89l12.37,7.14v-4.35l-12.37-7.14Z"/>
        <path class="cls-19" d="M35.45,56.11c-.01.38-.3.79-.84,1.1l-14.29,8.25v4.35l14.29-8.25c.55-.32.83-.72.84-1.1h0v-4.35h0Z"/>
        <path class="cls-15" d="M16.87,65.6v4.35c.88.51,2.43.45,3.45-.14v-4.35c-1.02.59-2.57.65-3.45.14Z"/>
      </g>
      <g>
        <path class="cls-18" d="M91.26,81.54l-37.55-21.68c-.88-.51-.77-1.4.25-1.99l47.44-27.39c1.02-.59,2.57-.65,3.45-.14l37.55,21.68c.88.51.77,1.4-.25,1.99l-47.44,27.39c-1.02.59-2.57.65-3.45.14Z"/>
        <path class="cls-19" d="M142.99,52.91c-.01.38-.3.78-.84,1.1l-47.44,27.39v4.35l47.44-27.39c.54-.31.83-.71.84-1.1h0v-4.35h0Z"/>
        <path class="cls-1" d="M53.71,59.86c-.38-.22-.58-.52-.6-.83h0v4.35h0c.01.31.21.61.6.83l37.55,21.68v-4.35l-37.55-21.68Z"/>
        <path class="cls-11" d="M91.26,81.54v4.35c.88.51,2.43.45,3.45-.14v-4.35c-1.02.59-2.57.65-3.45.14Z"/>
      </g>
      <g>
        <path class="cls-18" d="M110.87,100.16l-12.37-7.14c-.88-.51-.77-1.4.25-1.99l14.29-8.25c1.02-.59,2.57-.65,3.45-.14l12.37,7.14c.88.51.77,1.4-.25,1.99l-14.29,8.25c-1.02.59-2.57.65-3.45.14Z"/>
        <path class="cls-19" d="M129.45,90.66c0,.39-.29.79-.84,1.11l-14.29,8.25v4.35l14.29-8.25c.55-.32.83-.72.84-1.11h0v-4.35h0Z"/>
        <path class="cls-1" d="M98.5,93.01c-.38-.22-.58-.51-.6-.82h0v4.35h0c.02.31.21.6.6.82l12.37,7.14v-4.35l-12.37-7.14Z"/>
        <path class="cls-16" d="M110.87,100.16v4.35c.88.51,2.43.45,3.45-.14v-4.35c-1.02.59-2.57.65-3.45.14Z"/>
      </g>
      <g>
        <g>
          <path class="cls-19" d="M41.48,99.45l3.77,2.18c3.96-2.29,8.52-3.76,12.65-4.18v-3.3c-5.51.51-11.33,2.36-16.42,5.3Z"/>
          <path class="cls-3" d="M63.87,94.14c-1.91-.19-3.91-.19-5.96,0v3.3c1.47-.15,2.89-.16,4.2-.03.95.1,1.85.27,2.7.51v-3.68c-.32-.04-.63-.08-.93-.11Z"/>
          <path class="cls-19" d="M102.69,96.52v2.18c-7.92,4.58-16.09,9.27-20.16,8.86-.48-.05-.93-.18-1.37-.38v3.69c7.06.52,15.14-4.12,25.31-9.99v-2.18l-3.77-2.18Z"/>
          <path class="cls-1" d="M75.42,99.44c-2.91-3.35-7.07-4.7-10.62-5.19v3.68c3.37.97,5.85,3.1,7.22,6.25.66,1.52,1.48,2.78,2.45,3.77v-8.52h.95Z"/>
          <path class="cls-14" d="M77.62,102.95c-.59-1.37-1.35-2.53-2.2-3.51h-.95v8.52c1.63,1.67,3.72,2.62,6.29,2.88.13.01.26.02.39.03v-3.69c-1.4-.65-2.6-2.08-3.53-4.22Z"/>
        </g>
        <path class="cls-7" d="M82.53,105.38c-1.99-.2-3.68-1.79-4.91-4.61-2.79-6.42-9.02-8.33-13.75-8.81-7.03-.71-15.4,1.27-22.39,5.31l3.77,2.18c5.37-3.1,11.83-4.71,16.85-4.2,4.77.48,8.2,2.82,9.91,6.76,1.77,4.06,4.63,6.24,8.75,6.66,7.15.72,15.34-3.98,25.7-9.96l-3.77-2.18c-7.92,4.58-16.09,9.27-20.16,8.86Z"/>
      </g>
      <g>
        <path class="cls-19" d="M116.25,72.22l4.35-2.51c2.97,1.72,6.52,1.35,12.07.61,5.49-.73,12.33-1.65,17.75,1.48l-4.35,2.51c-3.32-1.92-7.06-1.54-12.89-.76-5.57.74-11.88,1.58-16.93-1.33Z"/>
        <path class="cls-7" d="M116.25,70.04l4.35-2.51c2.97,1.72,6.52,1.35,12.07.61,5.49-.73,12.33-1.65,17.75,1.48l-4.35,2.51c-3.32-1.92-7.06-1.54-12.89-.76-5.57.74-11.88,1.58-16.93-1.33Z"/>
      </g>
      <g>
        <path class="cls-21" d="M174.07,96.05l18.65-10.77c.88-.51.77-1.4-.25-1.99l-31.95-18.45c-1.02-.59-2.57-.65-3.45-.14l-18.65,10.77c-.88.51-.77,1.4.25,1.99l31.95,18.45c1.02.59,2.57.65,3.45.14Z"/>
        <path class="cls-19" d="M193.31,84.42c0,.33-.19.64-.59.87l-18.65,10.77v4.35l18.65-10.77c.4-.23.6-.54.59-.87h0v-4.35h0Z"/>
        <path class="cls-1" d="M138.66,77.46c-.56-.32-.84-.74-.84-1.13h0v4.35h0c0,.39.28.81.84,1.13l31.89,18.41v-4.35l-31.89-18.41Z"/>
        <path class="cls-13" d="M170.62,95.91l-.07-.04v4.35l.07.04c1.02.59,2.57.65,3.45.14v-4.35c-.88.51-2.43.45-3.45-.14Z"/>
      </g>
      <g>
        <path class="cls-19" d="M25.17,71.54c-1.97.42-3.81.74-5.5.95v3.3c2.1-.25,4.37-.63,6.8-1.15.99-.21,1.96-.38,2.92-.52v-3.31c-1.42.19-2.85.43-4.22.73Z"/>
        <path class="cls-2" d="M29.39,70.82v3.31c2.04-.29,3.97-.41,5.58-.35v-3.34c-1.8,0-3.69.14-5.58.39Z"/>
        <path class="cls-5" d="M11.44,72.4v3.59c.27.03.54.05.82.07,2.16.15,4.64.06,7.41-.27v-3.3c-3.55.44-6.38.41-8.23-.09Z"/>
        <path class="cls-7" d="M27.47,89.18l-3.77-2.18c6.93-4,11.7-7.41,14.17-10.12,1.72-1.89,2.24-3.38,1.45-4.2-1.33-1.38-6.97-1.48-12.85-.22-5.62,1.21-10.4,1.69-14.2,1.42-4.64-.32-6.84-1.67-7.87-2.74-2.54-2.64-.87-6.59,3.97-9.38l3.77,2.18c-2.77,1.6-3.92,3.92-2.61,5.29,1.74,1.81,7.59,1.86,15.64.13,7.4-1.59,16.23-1.77,19.28,1.4,3.53,3.67-2.19,9.87-16.98,18.41Z"/>
        <path class="cls-1" d="M39.32,72.69c-.63-.65-2.22-1.02-4.35-1.09v2.18c2.13.07,3.72.44,4.35,1.09,0,0,0,0,0,.01.47-.94.47-1.69,0-2.19Z"/>
        <path class="cls-19" d="M27.47,89.18l-1.9-1.1c-.61.36-1.23.73-1.87,1.1l3.77,2.18c13.13-7.58,19.11-13.31,17.83-17.07-1.05,3.67-7.02,8.65-17.83,14.9Z"/>
        <path class="cls-19" d="M12.14,63.95c-2.57,1.48-3.74,3.58-2.86,4.96.46-.97,1.45-1.97,2.86-2.79v-2.18l-3.77-2.18h0s3.77,2.18,3.77,2.18Z"/>
        <path class="cls-1" d="M4.4,71.15c-.51-.53-.85-1.12-1.03-1.73-.37,1.41-.06,2.78,1.03,3.91.97,1.01,2.97,2.25,7.05,2.67v-2.18c-4.08-.41-6.08-1.66-7.05-2.67Z"/>
      </g>
      <g>
        <polygon class="cls-19" points="69.66 70.15 69.66 72.33 32.08 94.02 37.74 97.29 75.32 75.6 75.32 73.42 69.66 70.15"/>
        <polygon class="cls-7" points="37.74 95.11 32.08 91.85 69.66 70.15 75.32 73.42 37.74 95.11"/>
      </g>
      <g>
        <path class="cls-6" d="M.84,95.73l18.08-10.44c1.02-.59,2.57-.65,3.45-.14l25.08,14.48c.88.51.77,1.4-.25,1.99l-18.08,10.44c-1.02.59-2.57.65-3.45.14L.6,97.72c-.88-.51-.77-1.4.25-1.99Z"/>
        <path class="cls-1" d="M.6,97.72c-.4-.23-.6-.54-.59-.87h0v4.35h0c0,.33.19.64.59.87l25.08,14.48v-4.35L.6,97.72Z"/>
        <path class="cls-19" d="M48.05,100.49c0,.39-.28.81-.84,1.13l-18.08,10.44v4.35l18.08-10.44c.56-.32.85-.74.84-1.13h0v-4.35h0Z"/>
        <path class="cls-4" d="M25.68,112.2v4.35c.88.51,2.43.45,3.45-.14v-4.35c-1.02.59-2.57.65-3.45.14Z"/>
      </g>
    </g>
  </g>
</svg>