<?xml version="1.0" encoding="UTF-8"?>
<svg id="_レイヤー_2" data-name="レイヤー 2" xmlns="http://www.w3.org/2000/svg" xmlns:xlink="http://www.w3.org/1999/xlink" viewBox="0 0 147 139.49">
  <defs>
    <style>
      .cls-1 {
        fill: #404040;
      }

      .cls-2 {
        fill: #f1f1f1;
      }

      .cls-3 {
        fill: #181919;
      }

      .cls-4 {
        fill: #d8d8d9;
      }

      .cls-5 {
        fill: #4c4b4c;
      }

      .cls-6 {
        font-family: HOONEorinigyosilOTFR, 1HOONEorinigyosilOTF;
        font-size: 8.47px;
      }

      .cls-6, .cls-7 {
        fill: #ce7240;
      }

      .cls-8 {
        fill: #d5687d;
      }

      .cls-9 {
        fill: #d6865c;
      }

      .cls-10 {
        fill: #040000;
      }

      .cls-11 {
        fill: url(#_名称未設定グラデーション_8);
      }

      .cls-12 {
        fill: #6a92b2;
      }

      .cls-13 {
        fill: #be6a3c;
      }

      .cls-14 {
        fill: #e6e6e5;
      }

      .cls-15 {
        fill: #0c0c0c;
      }

      .cls-16 {
        fill: #9c5630;
      }

      .cls-17 {
        fill: #252526;
      }

      .cls-18 {
        fill: #cbcbcb;
      }

      .cls-19 {
        fill: #323333;
      }

      .cls-20 {
        fill: #b16138;
      }

      .cls-21 {
        fill: #b2b1b1;
      }

      .cls-22 {
        fill: #bfbebe;
      }
    </style>
    <linearGradient id="_名称未設定グラデーション_8" data-name="名称未設定グラデーション 8" x1="-239.7" y1="133.45" x2="-231.09" y2="133.45" gradientTransform="translate(-156.75) rotate(-180) scale(1 -1)" gradientUnits="userSpaceOnUse">
      <stop offset="0" stop-color="#d8d8d9"/>
      <stop offset="1" stop-color="#b2b1b1"/>
    </linearGradient>
  </defs>
  <g id="contents">
    <g>
      <g>
        <path class="cls-8" d="M144.89,86.68l-72.24-41.71c-2.55-1.47-6.4-1.63-8.6-.36L1.49,80.74c-2.21,1.27-1.93,3.5.62,4.97l72.24,41.71c2.55,1.47,6.4,1.63,8.6.36l62.56-36.12c2.21-1.27,1.93-3.5-.62-4.97Z"/>
        <path class="cls-4" d="M145.51,91.65c1.02-.59,1.5-1.38,1.48-2.21h0v10.86h0c.02.83-.46,1.62-1.48,2.21l-62.56,36.12v-10.86l62.56-36.12Z"/>
        <path class="cls-21" d="M.01,82.74c-.08,1.02.62,2.12,2.09,2.97l72.24,41.71v10.86L2.11,96.57c-1.47-.85-2.18-1.95-2.09-2.97H0v-10.86h.01Z"/>
        <path class="cls-11" d="M82.95,127.77v10.86c-2.21,1.27-6.06,1.11-8.6-.36v-10.86c2.55,1.47,6.4,1.63,8.6.36Z"/>
      </g>
      <g>
        <polygon class="cls-18" points="83.71 84.15 86.33 85.68 86.33 54.24 83.71 52.71 83.71 84.15"/>
        <path class="cls-5" d="M67.57,93.95v-32.41l16.56-9.56v32.41l-16.56,9.56ZM68.41,62.02v30.47l14.88-8.59v-30.47l-14.88,8.59Z"/>
        <path class="cls-5" d="M67.57,93.95v-32.41l16.56-9.56v32.41l-16.56,9.56ZM68.41,62.02v30.47l14.88-8.59v-30.47l-14.88,8.59Z"/>
        <polygon class="cls-12" points="67.99 93.22 83.71 84.15 83.71 52.71 75.85 57.24 67.99 61.78 67.99 93.22"/>
        <rect class="cls-5" x="75.43" y="57.24" width=".84" height="31.66"/>
        <polygon class="cls-18" points="100.98 31.84 59.06 56.05 22.75 35.09 64.67 10.89 100.98 31.84"/>
        <polygon class="cls-14" points="64.67 10.89 22.75 35.09 22.75 29.85 64.67 5.65 64.67 10.89"/>
        <polygon class="cls-4" points="96.03 28.99 64.67 10.89 64.67 5.65 96.03 23.75 96.03 28.99"/>
        <polygon class="cls-12" points="19.12 74.21 30.91 81.01 30.91 60.05 19.12 53.25 19.12 74.21"/>
        <path class="cls-5" d="M31.33,81.74l-12.63-7.29v-21.93l12.63,7.29v21.93ZM19.54,73.96l10.95,6.32v-19.99l-10.95-6.32v19.99Z"/>
        <rect class="cls-5" x="24.6" y="57.12" width=".84" height="13.61" transform="translate(-42.86 53.63) rotate(-60)"/>
        <rect class="cls-5" x="24.6" y="56.65" width=".84" height="20.96"/>
        <polygon class="cls-12" points="36.96 84.51 48.75 91.31 48.75 70.35 36.96 63.55 36.96 84.51"/>
        <path class="cls-5" d="M49.17,92.04l-12.63-7.29v-21.93l12.63,7.29v21.93ZM37.38,84.27l10.95,6.32v-19.99l-10.95-6.32v19.99Z"/>
        <rect class="cls-5" x="42.44" y="67.42" width=".84" height="13.61" transform="translate(-42.86 74.23) rotate(-60)"/>
        <rect class="cls-5" x="42.44" y="66.95" width=".84" height="20.96"/>
        <polygon class="cls-18" points="35.65 85.26 47.44 92.07 48.75 91.31 36.96 84.51 35.65 85.26"/>
        <polygon class="cls-18" points="35.65 85.26 36.96 84.51 36.96 63.55 35.65 64.3 35.65 85.26"/>
        <polygon class="cls-12" points="88.35 72.52 100.14 65.71 100.14 44.75 88.35 51.56 88.35 72.52"/>
        <path class="cls-5" d="M87.93,73.24v-21.93l12.63-7.29v21.93l-12.63,7.29ZM88.77,51.8v19.99l10.95-6.32v-19.99l-10.95,6.32Z"/>
        <rect class="cls-5" x="87.44" y="55.02" width="13.61" height=".84" transform="translate(-15.09 54.54) rotate(-29.99)"/>
        <rect class="cls-5" x="93.83" y="48.16" width=".84" height="20.96"/>
        <polygon class="cls-4" points="89.66 73.27 101.45 66.47 100.14 65.71 88.35 72.52 89.66 73.27"/>
        <polygon class="cls-18" points="100.14 65.71 101.45 66.47 101.45 45.51 100.14 44.75 100.14 65.71"/>
        <polygon class="cls-12" points="54.24 92.21 66.03 85.41 66.03 64.45 54.24 71.25 54.24 92.21"/>
        <path class="cls-5" d="M53.82,92.94v-21.93l12.63-7.29v21.93l-12.63,7.29ZM54.66,71.5v19.99l10.95-6.32v-19.99l-10.95,6.32Z"/>
        <rect class="cls-5" x="53.33" y="74.71" width="13.61" height=".84" transform="translate(-29.51 40.12) rotate(-29.99)"/>
        <rect class="cls-5" x="59.72" y="67.85" width=".84" height="20.96"/>
        <polygon class="cls-4" points="55.55 92.97 67.34 86.16 66.03 85.41 54.24 92.21 55.55 92.97"/>
        <polygon class="cls-18" points="66.03 85.41 67.34 86.16 67.34 65.2 66.03 64.45 66.03 85.41"/>
        <path class="cls-14" d="M52.27,52.94v52.4l18.34-10.59v-31.44l15.72-9.08v31.44l18.34-10.59V22.69l-52.4,30.25ZM67.34,86.16l-11.79,6.81v-20.96l11.79-6.81v20.96ZM101.45,66.47l-11.79,6.81v-20.96l11.79-6.81v20.96Z"/>
        <polygon class="cls-18" points="17.81 74.96 29.6 81.77 30.91 81.01 19.12 74.21 17.81 74.96"/>
        <polygon class="cls-18" points="17.81 74.96 19.12 74.21 19.12 53.25 17.81 54 17.81 74.96"/>
        <path class="cls-2" d="M12.98,30.25l39.3,22.69,52.4-30.25L65.37,0,12.98,30.25ZM94.9,23.09l-41.92,24.2-30.22-17.45L64.67,5.65l30.22,17.45Z"/>
        <polygon class="cls-7" points="72.2 95.67 52.55 107.01 52.55 101.77 72.2 90.43 72.2 95.67"/>
        <polygon class="cls-9" points="72.2 90.43 52.55 101.77 50.96 100.86 70.61 89.51 72.2 90.43"/>
        <polygon class="cls-7" points="107.57 75.24 87.92 86.58 87.92 81.34 107.57 70 107.57 75.24"/>
        <polygon class="cls-9" points="107.57 70 87.92 81.34 86.33 80.43 104.67 69.84 104.67 67.77 107.57 70"/>
        <polygon class="cls-13" points="86.33 85.68 87.92 86.58 87.92 81.34 86.33 80.44 86.33 85.68"/>
        <text class="cls-6" transform="translate(67.7 57.24) rotate(-30) scale(.87) skewX(-30)"><tspan x="0" y="0">GAS STATION</tspan></text>
        <path class="cls-5" d="M64.79,54.71c0,2.91-1.77,6.3-3.96,7.56s-3.96-.08-3.96-2.99,1.77-6.3,3.96-7.56c2.18-1.26,3.96.08,3.96,2.99Z"/>
        <path class="cls-5" d="M59.27,62.95c-.4,0-.78-.1-1.12-.29-.94-.54-1.47-1.77-1.47-3.38,0-2.97,1.82-6.45,4.06-7.74,1.02-.59,2.01-.66,2.8-.21.94.54,1.47,1.77,1.47,3.38,0,2.97-1.82,6.45-4.06,7.74-.58.33-1.15.5-1.68.5ZM62.41,51.45c-.46,0-.96.15-1.47.44-2.12,1.23-3.85,4.54-3.85,7.38,0,1.45.46,2.55,1.26,3.02.65.38,1.49.3,2.38-.21,2.12-1.23,3.85-4.53,3.85-7.38,0-1.45-.46-2.55-1.26-3.02-.27-.16-.58-.24-.91-.24Z"/>
        <path class="cls-14" d="M65.4,55.31c0,2.91-1.77,6.3-3.96,7.56s-3.96-.08-3.96-2.99,1.77-6.3,3.96-7.56c2.18-1.26,3.96.08,3.96,2.99Z"/>
        <path class="cls-5" d="M59.87,63.55c-.4,0-.78-.1-1.12-.29-.94-.54-1.47-1.77-1.47-3.38,0-2.97,1.82-6.45,4.06-7.74,1.02-.59,2.01-.66,2.8-.21.94.54,1.47,1.77,1.47,3.38,0,2.97-1.82,6.45-4.06,7.74-.58.33-1.15.5-1.68.5ZM63.02,52.06c-.46,0-.96.15-1.47.44-2.12,1.23-3.85,4.53-3.85,7.38,0,1.45.46,2.55,1.26,3.02.65.38,1.5.3,2.38-.21,2.12-1.23,3.85-4.54,3.85-7.38,0-1.45-.46-2.55-1.26-3.02-.27-.16-.58-.24-.91-.24Z"/>
        <path class="cls-7" d="M62.57,56.15l-1.23-1.65-1.23,3.07c-.5,1.33-.68,2.76,0,3.28.34.26.78.23,1.23-.03s.89-.74,1.23-1.39c.68-1.3.5-2.52,0-3.28ZM60.21,60c-.32-.68.19-2.22.51-2.87,0,0-.33,1.37.11,2.3.23.48-.26,1.34-.61.57Z"/>
        <path class="cls-4" d="M12.98,30.25v52.4l39.3,22.69v-52.4L12.98,30.25ZM29.6,81.77l-11.79-6.81v-20.96l11.79,6.81v20.96ZM47.44,92.07l-11.79-6.81v-20.96l11.79,6.81v20.96Z"/>
        <polygon class="cls-13" points="52.55 107.01 10.63 82.81 10.63 77.57 52.55 101.77 52.55 107.01"/>
        <polygon class="cls-9" points="52.55 101.77 10.63 77.57 12.98 76.23 12.98 77.1 54.13 100.86 52.55 101.77"/>
      </g>
      <g>
        <g>
          <polygon class="cls-22" points="92.05 112.02 92.05 113 124.08 94.51 124.08 93.53 92.05 112.02"/>
          <polygon class="cls-21" points="76.04 102.78 76.04 103.76 92.05 113 92.05 112.02 76.04 102.78"/>
          <polygon class="cls-18" points="108.07 84.28 76.04 102.78 92.05 112.02 124.08 93.53 108.07 84.28"/>
        </g>
        <g>
          <path class="cls-7" d="M95.56,90.59l-3.75-2.17c-.15-.09-.29-.09-.39-.04v-.03s-3.22,1.86-3.22,1.86l3.04,9.18v1c0,.33.21.72.48.92l1.01,4.11,3.12-1.8c.17-.01.29-.16.29-.4v-11.64c0-.36-.26-.81-.57-.99Z"/>
          <path class="cls-9" d="M95.57,90.59l-3.75-2.17c-.15-.09-.29-.09-.39-.04v-.03s-3.23,1.86-3.23,1.86l.18.72,4.12,2.02c0,.16.07.35.16.51l3.46-2c-.05-.34-.28-.71-.56-.87Z"/>
          <path class="cls-16" d="M92.34,92.41l-3.75-2.17c-.31-.18-.57-.03-.57.33v11.64c0,.36.26.81.57.99l3.75,2.17c.32.18.57.03.57-.33v-11.64c0-.36-.26-.81-.57-.99Z"/>
          <path class="cls-20" d="M92.34,105.38c.32.18.57.03.57-.33v-11.64c0-.36-.26-.81-.57-.99l-3.75-2.17c-.31-.18-.57-.03-.57.33"/>
        </g>
        <g>
          <polygon class="cls-15" points="86.17 99.76 88.11 100.89 88.11 106.17 86.17 105.04 86.17 99.76"/>
          <polyline class="cls-3" points="86.17 99.76 88.11 100.89 88.11 106.17"/>
          <polygon class="cls-17" points="90.05 99.76 88.11 100.89 88.11 106.17 90.05 105.04 90.05 99.76"/>
          <polyline class="cls-19" points="90.05 99.76 88.11 100.89 88.11 106.17"/>
          <polygon class="cls-1" points="88.11 98.64 90.05 99.76 88.11 100.89 86.17 99.76 88.11 98.64"/>
          <polyline class="cls-5" points="90.05 99.76 88.11 100.89 86.17 99.76"/>
          <polygon class="cls-10" points="88.13 100.59 86.68 99.75 88.13 98.91 89.57 99.75 88.13 100.59"/>
          <polyline class="cls-10" points="88.13 98.91 89.57 99.75 88.13 100.59"/>
          <polygon class="cls-15" points="87.51 82.66 88.13 83.02 88.13 100.04 87.51 99.68 87.51 82.66"/>
          <polygon class="cls-17" points="88.74 82.66 88.13 83.02 88.13 100.04 88.74 99.68 88.74 82.66"/>
        </g>
        <g>
          <path class="cls-7" d="M106.77,83.99l-3.75-2.17c-.15-.09-.29-.09-.39-.04v-.03s-3.22,1.86-3.22,1.86l3.04,9.18v1c0,.33.21.72.48.92l1.01,4.11,3.12-1.8c.17-.01.29-.16.29-.4v-11.64c0-.36-.26-.81-.57-.99Z"/>
          <path class="cls-9" d="M106.77,83.99l-3.75-2.17c-.15-.09-.29-.09-.39-.04v-.03s-3.23,1.86-3.23,1.86l.18.72,4.12,2.02c0,.16.07.35.16.51l3.46-2c-.05-.34-.28-.71-.56-.87Z"/>
          <path class="cls-16" d="M103.55,85.81l-3.75-2.17c-.31-.18-.57-.03-.57.33v11.64c0,.36.26.81.57.99l3.75,2.17c.32.18.57.03.57-.33v-11.64c0-.36-.26-.81-.57-.99Z"/>
          <path class="cls-20" d="M103.55,98.78c.32.18.57.03.57-.33v-11.64c0-.36-.26-.81-.57-.99l-3.75-2.17c-.31-.18-.57-.03-.57.33"/>
        </g>
        <g>
          <polygon class="cls-15" points="97.38 93.16 99.32 94.29 99.32 99.57 97.38 98.44 97.38 93.16"/>
          <polyline class="cls-3" points="97.38 93.16 99.32 94.29 99.32 99.57"/>
          <polygon class="cls-17" points="101.26 93.16 99.32 94.29 99.32 99.57 101.26 98.44 101.26 93.16"/>
          <polyline class="cls-19" points="101.26 93.16 99.32 94.29 99.32 99.57"/>
          <polygon class="cls-1" points="99.32 92.04 101.26 93.16 99.32 94.29 97.38 93.16 99.32 92.04"/>
          <polyline class="cls-5" points="101.26 93.16 99.32 94.29 97.38 93.16"/>
          <polygon class="cls-10" points="99.33 93.99 97.89 93.15 99.33 92.31 100.78 93.15 99.33 93.99"/>
          <polyline class="cls-10" points="99.33 92.31 100.78 93.15 99.33 93.99"/>
          <polygon class="cls-15" points="98.72 76.06 99.34 76.42 99.34 93.44 98.72 93.08 98.72 76.06"/>
          <polygon class="cls-17" points="99.95 76.06 99.34 76.42 99.34 93.44 99.95 93.08 99.95 76.06"/>
        </g>
        <g>
          <polygon class="cls-15" points="109.07 86.34 111.02 87.46 111.02 92.74 109.07 91.62 109.07 86.34"/>
          <polyline class="cls-3" points="109.07 86.34 111.02 87.46 111.02 92.74"/>
          <polygon class="cls-17" points="112.96 86.34 111.02 87.46 111.02 92.74 112.96 91.62 112.96 86.34"/>
          <polyline class="cls-19" points="112.96 86.34 111.02 87.46 111.02 92.74"/>
          <polygon class="cls-1" points="111.02 85.22 112.96 86.34 111.02 87.46 109.07 86.34 111.02 85.22"/>
          <polyline class="cls-5" points="112.96 86.34 111.02 87.46 109.07 86.34"/>
          <polygon class="cls-10" points="111.03 87.16 109.59 86.32 111.03 85.49 112.48 86.32 111.03 87.16"/>
          <polyline class="cls-10" points="111.03 85.49 112.48 86.32 111.03 87.16"/>
          <polygon class="cls-15" points="110.42 69.24 111.03 69.59 111.03 86.61 110.42 86.26 110.42 69.24"/>
          <polygon class="cls-17" points="111.65 69.24 111.03 69.59 111.03 86.61 111.65 86.26 111.65 69.24"/>
        </g>
        <g>
          <polygon class="cls-3" points="95.27 91.18 95.27 92.05 123.92 75.51 123.92 74.63 95.27 91.18"/>
          <polygon class="cls-15" points="70.18 76.68 70.18 77.55 95.27 92.05 95.27 91.18 70.18 76.68"/>
          <polygon class="cls-15" points="98.83 60.14 70.18 76.68 95.27 91.18 123.92 74.63 98.83 60.14"/>
          <polyline class="cls-3" points="70.18 76.68 95.27 91.18 123.92 74.63"/>
          <path class="cls-17" d="M69.31,77.36c-.08,0-.15-.04-.2-.11-.06-.11-.02-.25.08-.31l30.3-17.49c.11-.06.25-.03.31.08.06.11.02.25-.08.31l-30.3,17.49s-.07.03-.11.03Z"/>
          <path class="cls-17" d="M70.45,78.02c-.08,0-.15-.04-.2-.11-.06-.11-.02-.25.08-.31l30.3-17.49c.11-.06.25-.03.31.08.06.11.02.25-.08.31l-30.3,17.49s-.07.03-.11.03Z"/>
          <path class="cls-17" d="M71.58,78.67c-.08,0-.15-.04-.2-.11-.06-.11-.02-.25.08-.31l30.3-17.49c.11-.06.25-.03.31.08.06.11.02.25-.08.31l-30.3,17.49s-.07.03-.11.03Z"/>
          <path class="cls-17" d="M72.72,79.32c-.08,0-.15-.04-.2-.11-.06-.11-.02-.25.08-.31l30.3-17.49c.11-.06.25-.03.31.08.06.11.02.25-.08.31l-30.3,17.49s-.07.03-.11.03Z"/>
          <path class="cls-17" d="M73.85,79.98c-.08,0-.15-.04-.2-.11-.06-.11-.02-.25.08-.31l30.3-17.49c.11-.06.25-.03.31.08.06.11.02.25-.08.31l-30.3,17.49s-.07.03-.11.03Z"/>
          <path class="cls-17" d="M74.99,80.63c-.08,0-.15-.04-.2-.11-.06-.11-.02-.25.08-.31l30.3-17.49c.11-.06.25-.03.31.08.06.11.02.25-.08.31l-30.3,17.49s-.07.03-.11.03Z"/>
          <path class="cls-17" d="M76.12,81.28c-.08,0-.15-.04-.2-.11-.06-.11-.02-.25.08-.31l30.3-17.49c.11-.06.25-.03.31.08.06.11.02.25-.08.31l-30.3,17.49s-.07.03-.11.03Z"/>
          <path class="cls-17" d="M77.26,81.94c-.08,0-.15-.04-.2-.11-.06-.11-.02-.25.08-.31l30.3-17.49c.11-.06.25-.03.31.08.06.11.02.25-.08.31l-30.3,17.49s-.07.03-.11.03Z"/>
          <path class="cls-17" d="M78.4,82.59c-.08,0-.15-.04-.2-.11-.06-.11-.02-.25.08-.31l30.3-17.49c.11-.06.25-.03.31.08.06.11.02.25-.08.31l-30.3,17.49s-.07.03-.11.03Z"/>
          <path class="cls-17" d="M79.53,83.24c-.08,0-.15-.04-.2-.11-.06-.11-.02-.25.08-.31l30.3-17.49c.11-.06.25-.03.31.08.06.11.02.25-.08.31l-30.3,17.49s-.07.03-.11.03Z"/>
          <path class="cls-17" d="M80.67,83.89c-.08,0-.15-.04-.2-.11-.06-.11-.02-.25.08-.31l30.3-17.49c.11-.06.25-.03.31.08.06.11.02.25-.08.31l-30.3,17.49s-.07.03-.11.03Z"/>
          <path class="cls-17" d="M81.8,84.55c-.08,0-.15-.04-.2-.11-.06-.11-.02-.25.08-.31l30.3-17.49c.11-.06.25-.03.31.08.06.11.02.25-.08.31l-30.3,17.49s-.07.03-.11.03Z"/>
          <path class="cls-17" d="M82.94,85.2c-.08,0-.15-.04-.2-.11-.06-.11-.02-.25.08-.31l30.3-17.49c.11-.06.25-.03.31.08.06.11.02.25-.08.31l-30.3,17.49s-.07.03-.11.03Z"/>
          <path class="cls-17" d="M84.07,85.85c-.08,0-.15-.04-.2-.11-.06-.11-.02-.25.08-.31l30.3-17.49c.11-.06.25-.03.31.08.06.11.02.25-.08.31l-30.3,17.49s-.07.03-.11.03Z"/>
          <path class="cls-17" d="M85.21,86.51c-.08,0-.15-.04-.2-.11-.06-.11-.02-.25.08-.31l30.3-17.49c.11-.06.25-.03.31.08.06.11.02.25-.08.31l-30.3,17.49s-.07.03-.11.03Z"/>
          <path class="cls-17" d="M86.34,87.16c-.08,0-.15-.04-.2-.11-.06-.11-.02-.25.08-.31l30.3-17.49c.11-.06.25-.03.31.08.06.11.02.25-.08.31l-30.3,17.49s-.07.03-.11.03Z"/>
          <path class="cls-17" d="M87.48,87.81c-.08,0-.15-.04-.2-.11-.06-.11-.02-.25.08-.31l30.3-17.49c.11-.06.25-.03.31.08.06.11.02.25-.08.31l-30.3,17.49s-.07.03-.11.03Z"/>
          <path class="cls-17" d="M88.61,88.46c-.08,0-.15-.04-.2-.11-.06-.11-.02-.25.08-.31l30.3-17.49c.11-.06.25-.03.31.08.06.11.02.25-.08.31l-30.3,17.49s-.07.03-.11.03Z"/>
          <path class="cls-17" d="M89.75,89.12c-.08,0-.15-.04-.2-.11-.06-.11-.02-.25.08-.31l30.3-17.49c.11-.06.25-.03.31.08.06.11.02.25-.08.31l-30.3,17.49s-.07.03-.11.03Z"/>
          <path class="cls-17" d="M90.88,89.77c-.08,0-.15-.04-.2-.11-.06-.11-.02-.25.08-.31l30.3-17.49c.11-.06.25-.03.31.08.06.11.02.25-.08.31l-30.3,17.49s-.07.03-.11.03Z"/>
          <path class="cls-17" d="M92.02,90.42c-.08,0-.15-.04-.2-.11-.06-.11-.02-.25.08-.31l30.3-17.49c.11-.06.25-.03.31.08.06.11.02.25-.08.31l-30.3,17.49s-.07.03-.11.03Z"/>
          <path class="cls-17" d="M93.16,91.07c-.08,0-.15-.04-.2-.11-.06-.11-.02-.25.08-.31l30.3-17.49c.11-.06.25-.03.31.08.06.11.02.25-.08.31l-30.3,17.49s-.07.03-.11.03Z"/>
          <path class="cls-17" d="M94.29,91.73c-.08,0-.15-.04-.2-.11-.06-.11-.02-.25.08-.31l30.3-17.49c.11-.06.25-.03.31.08.06.11.02.25-.08.31l-30.3,17.49s-.07.03-.11.03Z"/>
        </g>
      </g>
    </g>
  </g>
</svg>