<?xml version="1.0" encoding="UTF-8"?>
<svg id="_レイヤー_2" data-name="レイヤー 2" xmlns="http://www.w3.org/2000/svg" viewBox="0 0 119.63 88.61">
  <defs>
    <style>
      .cls-1 {
        fill: #ab5567;
      }

      .cls-2 {
        fill: #d58896;
      }

      .cls-3 {
        fill: #d8d8d9;
      }

      .cls-4 {
        fill: #d5687d;
      }

      .cls-5 {
        fill: #6a92b2;
      }

      .cls-6 {
        fill: #d27d8c;
      }

      .cls-7 {
        fill: #9e4b5d;
      }

      .cls-8 {
        fill: #9c4e5e;
      }

      .cls-9 {
        fill: #252526;
      }

      .cls-10 {
        fill: #bb5e70;
      }

      .cls-11 {
        fill: #cd7182;
      }

      .cls-12 {
        fill: #b2b1b1;
      }

      .cls-13 {
        fill: #b39135;
      }
    </style>
  </defs>
  <g id="contents">
    <g>
      <polygon class="cls-8" points="81.49 65.01 42.82 87.3 0 62.58 38.66 40.28 81.49 65.01"/>
      <g>
        <polygon class="cls-6" points="76.81 1.56 119.63 26.29 99.54 37.88 56.72 13.16 76.81 1.56"/>
        <polygon class="cls-8" points="97.99 36.99 108.8 20.04 106.16 18.51 97.99 36.99"/>
        <polygon class="cls-8" points="58.83 14.38 90.27 9.34 87.63 7.81 58.83 14.38"/>
      </g>
      <g>
        <polygon class="cls-4" points="78.88 66.51 36.06 41.78 36.06 9.86 78.88 34.59 78.88 66.51"/>
        <polygon class="cls-5" points="49.72 31.19 37.35 24.04 37.35 12.4 49.72 19.54 49.72 31.19"/>
        <polygon class="cls-5" points="77.5 47.22 65.12 40.08 65.12 28.43 77.5 35.58 77.5 47.22"/>
        <polygon class="cls-5" points="63.61 39.2 51.23 32.06 51.23 20.41 63.61 27.56 63.61 39.2"/>
        <path class="cls-1" d="M49.83,31.38l-12.6-7.27v-11.9l12.6,7.27v11.9ZM37.46,23.98l12.15,7.02v-11.39l-12.15-7.02v11.39Z"/>
        <path class="cls-1" d="M77.61,47.41l-12.6-7.27v-11.9l12.6,7.27v11.9ZM65.23,40.01l12.15,7.02v-11.39l-12.15-7.02v11.39Z"/>
        <path class="cls-1" d="M63.72,39.4l-12.6-7.27v-11.9l12.6,7.27v11.9ZM51.35,32l12.15,7.02v-11.39l-12.15-7.02v11.39Z"/>
        <polygon class="cls-8" points="78.88 50.58 36.06 25.86 36.06 25.09 78.88 49.81 78.88 50.58"/>
        <polygon class="cls-8" points="39.61 41.71 38.88 41.28 38.88 30.82 39.61 31.25 39.61 41.71"/>
        <polygon class="cls-8" points="40.92 42.46 40.19 42.04 40.19 31.58 40.92 32 40.92 42.46"/>
        <polygon class="cls-8" points="42.23 43.22 41.5 42.79 41.5 32.33 42.23 32.76 42.23 43.22"/>
        <polygon class="cls-8" points="43.54 43.97 42.8 43.55 42.8 33.09 43.54 33.51 43.54 43.97"/>
        <polygon class="cls-8" points="44.84 44.73 44.11 44.3 44.11 33.84 44.84 34.26 44.84 44.73"/>
        <polygon class="cls-10" points="78.88 34.59 95.97 24.72 99.54 37.88 78.88 49.81 78.88 34.59"/>
        <polygon class="cls-5" points="80.68 35.34 95.01 27.07 97.74 37.13 80.68 46.98 80.68 35.34"/>
        <path class="cls-1" d="M80.57,47.18v-11.9l14.51-8.38,2.79,10.29-17.3,9.99ZM80.79,35.4v11.39l16.82-9.71-2.67-9.85-14.15,8.17Z"/>
        <polygon class="cls-11" points="78.88 34.59 36.06 9.86 53.15 0 95.97 24.72 78.88 34.59"/>
      </g>
      <g>
        <polygon class="cls-2" points="4.95 44.33 2.07 49.87 .96 49.23 3.84 43.69 4.95 44.33"/>
        <polygon class="cls-6" points="36.06 25.09 3.84 43.69 4.95 44.33 37.17 25.73 36.06 25.09"/>
        <polygon class="cls-10" points="37.17 25.73 4.95 44.33 1.11 51.67 1.11 63.22 8.57 58.91 37.17 42.4 37.17 25.73"/>
      </g>
      <g>
        <polygon class="cls-4" points="42.82 87.3 0 62.58 0 51.06 42.82 75.78 42.82 87.3"/>
        <polygon class="cls-8" points="42.82 84.74 0 60.02 0 58.74 42.82 83.46 42.82 84.74"/>
        <polygon class="cls-8" points="41.28 81.03 33.6 76.6 33.6 72.76 41.28 77.19 41.28 81.03"/>
        <polygon class="cls-8" points="9.22 62.52 1.54 58.08 1.54 54.24 9.22 58.68 9.22 62.52"/>
        <polygon class="cls-13" points="3.86 59.43 1.54 58.08 1.54 54.24 3.86 55.59 3.86 59.43"/>
        <polygon class="cls-13" points="41.28 81.03 38.96 79.69 38.96 75.85 41.28 77.19 41.28 81.03"/>
        <path class="cls-13" d="M22.31,68.16c0,.66-.4.97-.9.68s-.9-1.06-.9-1.72.4-.97.9-.68.9,1.06.9,1.72Z"/>
        <polygon class="cls-4" points="42.82 75.78 0 51.06 0 49.78 42.82 74.5 42.82 75.78"/>
        <polygon class="cls-6" points="42.82 74.5 0 49.78 .96 49.23 43.79 73.95 42.82 74.5"/>
      </g>
      <g>
        <g>
          <polygon class="cls-9" points="53.21 88.22 48.14 85.29 48.14 81.89 53.21 84.82 53.21 88.22"/>
          <polygon class="cls-9" points="61.44 72.69 56.37 69.76 56.99 66.72 61.73 69.46 61.44 72.69"/>
          <path class="cls-9" d="M59.47,72.25c0,4.95-3.01,10.7-6.72,12.84s-6.72-.13-6.72-5.08,3.01-10.7,6.72-12.84c3.71-2.14,6.72.13,6.72,5.08Z"/>
          <path class="cls-9" d="M64.19,74.97c0,4.95-3.01,10.7-6.72,12.84s-6.72-.13-6.72-5.08,3.01-10.7,6.72-12.84c3.71-2.14,6.72.13,6.72,5.08Z"/>
          <path class="cls-3" d="M62.27,76.07c0,3.53-2.15,7.64-4.8,9.17s-4.8-.09-4.8-3.63,2.15-7.64,4.8-9.17,4.8.09,4.8,3.63Z"/>
          <path class="cls-12" d="M56.08,84.15c-.36,0-.71-.09-1.01-.27-.84-.49-1.32-1.59-1.32-3.03,0-2.64,1.62-5.72,3.6-6.86.92-.53,1.81-.59,2.52-.18.84.49,1.32,1.59,1.32,3.02,0,2.64-1.62,5.72-3.6,6.86-.52.3-1.03.45-1.5.45ZM58.85,74.03c-.39,0-.82.13-1.26.38-1.85,1.07-3.36,3.96-3.36,6.44,0,1.26.39,2.21,1.08,2.61.55.32,1.28.25,2.04-.18,1.85-1.07,3.36-3.96,3.36-6.44,0-1.26-.39-2.21-1.08-2.61-.23-.13-.49-.2-.77-.2Z"/>
          <path class="cls-12" d="M58.91,78.02c0,1.06-.64,2.29-1.44,2.75s-1.44-.03-1.44-1.09.64-2.29,1.44-2.75,1.44.03,1.44,1.09Z"/>
        </g>
        <g>
          <polygon class="cls-9" points="101.18 60.27 96.11 57.34 96.11 53.94 101.18 56.87 101.18 60.27"/>
          <polygon class="cls-9" points="109.41 44.74 104.34 41.81 105.03 38.81 110.17 41.77 109.41 44.74"/>
          <path class="cls-9" d="M107.44,44.3c0,4.95-3.01,10.7-6.72,12.84s-6.72-.13-6.72-5.08,3.01-10.7,6.72-12.84,6.72.13,6.72,5.08Z"/>
          <path class="cls-9" d="M112.38,47.14c0,4.95-3.01,10.7-6.72,12.84-3.71,2.14-6.72-.13-6.72-5.08s3.01-10.7,6.72-12.84c3.71-2.14,6.72.13,6.72,5.08Z"/>
          <path class="cls-3" d="M110.46,48.25c0,3.53-2.15,7.64-4.8,9.17s-4.8-.09-4.8-3.63,2.15-7.64,4.8-9.17,4.8.09,4.8,3.63Z"/>
          <path class="cls-12" d="M104.28,56.32c-.36,0-.71-.09-1.01-.27-.84-.49-1.32-1.59-1.32-3.02,0-2.64,1.62-5.71,3.6-6.86.91-.53,1.81-.59,2.52-.18.84.49,1.32,1.59,1.32,3.02,0,2.64-1.62,5.72-3.6,6.86-.52.3-1.03.45-1.5.45ZM107.05,46.2c-.39,0-.82.13-1.26.38-1.85,1.07-3.36,3.96-3.36,6.44,0,1.26.39,2.21,1.08,2.61.56.32,1.28.25,2.04-.18,1.85-1.07,3.36-3.96,3.36-6.44,0-1.26-.39-2.21-1.08-2.61-.23-.13-.49-.2-.77-.2Z"/>
          <path class="cls-12" d="M107.1,50.19c0,1.06-.64,2.29-1.44,2.75s-1.44-.03-1.44-1.09.64-2.29,1.44-2.75,1.44.03,1.44,1.09Z"/>
        </g>
        <path class="cls-7" d="M92.34,54.87l-28.26,16.32c.14.33.25.7.34,1.08l27.58-15.92c.09-.49.2-.99.34-1.48Z"/>
        <path class="cls-10" d="M46.66,68.41l-2.88,5.5-.96.55v12.83l7.46-4.31c0-5.3,3.22-11.46,7.2-13.76s7.2.14,7.2,5.44l33.66-19.43c0-5.3,3.22-11.46,7.2-13.76,3.98-2.3,7.2.14,7.2,5.44l6.89-3.98v-16.67l-72.96,42.13Z"/>
        <path class="cls-8" d="M98.94,51.06l-34.86,20.13c.14.33.25.7.34,1.08l34.18-19.73c.09-.49.2-.99.34-1.48Z"/>
        <path class="cls-8" d="M112.14,43.44c.14.33.25.7.34,1.08l7.15-4.13v-1.28l-7.49,4.32Z"/>
        <polygon class="cls-6" points="77.77 49.17 45.55 67.77 46.66 68.41 78.88 49.81 77.77 49.17"/>
        <polygon class="cls-2" points="46.66 68.41 43.79 73.95 42.68 73.31 45.55 67.77 46.66 68.41"/>
        <path class="cls-7" d="M50.88,78.81l-8.06,4.65v1.28l7.72-4.46c.09-.49.2-.99.34-1.48Z"/>
        <path class="cls-7" d="M50.88,78.81l-8.06,4.65v1.28l7.72-4.46c.09-.49.2-.99.34-1.48Z"/>
        <path class="cls-7" d="M50.88,78.81l-8.06,4.65v1.28l7.72-4.46c.09-.49.2-.99.34-1.48Z"/>
        <path class="cls-7" d="M50.88,78.81l-8.06,4.65v1.28l7.72-4.46c.09-.49.2-.99.34-1.48Z"/>
      </g>
    </g>
  </g>
</svg>