<?xml version="1.0" encoding="UTF-8"?>
<svg id="_レイヤー_2" data-name="レイヤー 2" xmlns="http://www.w3.org/2000/svg" viewBox="0 0 102.74 166.48">
  <defs>
    <style>
      .cls-1 {
        fill: #404040;
      }

      .cls-2 {
        fill: #f1f1f1;
      }

      .cls-3 {
        fill: #181919;
      }

      .cls-4 {
        fill: #4c4b4c;
      }

      .cls-5 {
        fill: #336084;
      }

      .cls-6 {
        fill: #524478;
      }

      .cls-7 {
        fill: #040000;
      }

      .cls-8 {
        fill: #655294;
      }

      .cls-9 {
        fill: #322a29;
      }

      .cls-10 {
        fill: #f2a7a8;
      }

      .cls-11 {
        fill: #4077a3;
      }

      .cls-12 {
        fill: #744b4d;
      }

      .cls-13 {
        fill: #fad8c0;
      }

      .cls-14 {
        fill: #9e4b5d;
      }

      .cls-15 {
        fill: #ce7240;
      }

      .cls-16 {
        fill: #f6bfb5;
      }

      .cls-17 {
        fill: #e6e6e5;
      }

      .cls-18 {
        fill: #bc9f55;
      }

      .cls-19 {
        fill: #252526;
      }

      .cls-20 {
        fill: #323333;
      }

      .cls-21 {
        fill: #b16138;
      }

      .cls-22 {
        fill: #bfbebe;
      }

      .cls-23 {
        fill: #b39135;
      }
    </style>
  </defs>
  <g id="contents">
    <g>
      <g>
        <polygon class="cls-14" points="38.44 76.44 36.7 75.44 36.7 50.66 38.44 51.66 38.44 76.44"/>
        <path class="cls-16" d="M26.64,46.12l-6.57.75c-.15,4.68,8.67,16.34,7.08,17.1-1.49.72-2.39,5.17-.88,5.04.32-.02.77-2.42,1.52-2.84.66-.37.92,1.18,1.57,2.71.65,1.53,1.93,5.33,2.43,5,.25-.16-.08-1.86-.67-3.72-.68-2.12,2.13-1.82,2.62-3.52.64-2.19-1.25-3.91-1.96-4.85-1.84-2.43-5.14-15.68-5.14-15.68Z"/>
        <path class="cls-17" d="M34.45,25.89c-3.17-2.47-6.12.36-9.27,5.07-2.65,3.98-5.91,9.79-5.64,16.97.11,2.83,7.27,1.32,7.98-.23.71-1.55,2.05-5.22,5.16-10.08,3.65-5.71,4.58-9.54,1.77-11.73Z"/>
        <path class="cls-6" d="M23.06,131.48c-.69.67-1.57,4.43-.95,5.12.36.4.86.63,1.36.83,4.15,1.59,10.54-3.94,11.61-4.87.97-.84,1.96-2.7,1.42-3.87-.44-.95-12.53,1.9-13.44,2.79Z"/>
        <path class="cls-8" d="M29.09,128.16c-1.55.6-5.59,2.84-6.29,3.52-.74.72-1.31,3.12-.69,3.81.36.4,1.31.76,1.82.93,2.01.67,7.59-1.91,10.35-4.34.96-.85,2.59-2.82,2.05-3.99-.44-.95-4.3-1.08-7.24.06Z"/>
        <path class="cls-6" d="M27.73,133.31c-.32,0-.59.34-.59.76s.26.76.59.76.59-.34.59-.76-.26-.76-.59-.76Z"/>
        <path class="cls-6" d="M23.02,131.94s-1.08,1.03-.74,3.71c0,0,.46.78,1.81.88,0,0-.09-2.72.48-3.55l.3-.55-1.16-1.53-.69,1.04Z"/>
        <path class="cls-16" d="M23.45,129.86c-.12.7-.23,1.4-.43,2.07.34-.19.78-.28,1.14-.06.36.22.54.7.41,1.1.98.16,2.1-.12,3.01-.51,2.57-1.09,3.02-2.57,2.78-3.1-.76-1.66-6.19.62-6.91.49Z"/>
        <path class="cls-3" d="M21.03,97.43c-.42.95-1.26,5.35-.8,10.44.46,5.09,1.84,21.69,1.84,21.69,5.12,1.98,7.82-.53,7.82-.53,0,0,1.81-23.33,1.99-30.53.17-7.2-9.69-3.65-10.84-1.07Z"/>
        <path class="cls-19" d="M22.74,60.1c-5.07,3.83-5.04,12.99-4.78,16,.24,2.76,2.09,18.01,2.85,22.4,1.14,6.54,10.98,7.01,10.98,2.13s6.57-32.76-.26-38.7c-3.79-3.3-7.57-2.76-8.79-1.83Z"/>
        <path class="cls-6" d="M34.28,136.99c-.69.67-1.57,4.43-.95,5.12.36.4.86.63,1.36.82,4.15,1.59,10.54-3.94,11.61-4.86.97-.84,1.96-2.71,1.42-3.87-.44-.95-12.53,1.9-13.44,2.79Z"/>
        <path class="cls-8" d="M40.31,133.67c-1.55.6-5.59,2.85-6.29,3.52-.74.72-1.31,3.12-.69,3.81.36.4,1.31.77,1.82.93,2.01.68,7.59-1.91,10.35-4.34.96-.85,2.59-2.82,2.05-3.99-.44-.95-4.3-1.07-7.24.06Z"/>
        <path class="cls-6" d="M38.95,138.81c-.32,0-.59.34-.59.76s.26.76.59.76.58-.34.58-.76c0-.42-.26-.76-.58-.76Z"/>
        <path class="cls-6" d="M34.24,137.44s-1.08,1.03-.74,3.72c0,0,.46.77,1.81.87,0,0-.09-2.72.48-3.55l.3-.55-1.16-1.53-.69,1.04Z"/>
        <path class="cls-10" d="M34.67,135.37c-.12.7-.23,1.4-.43,2.08.34-.19.78-.28,1.14-.06.36.22.54.7.41,1.1.98.16,2.1-.12,3.01-.51,2.57-1.09,3.02-2.57,2.78-3.1-.76-1.66-6.19.62-6.91.49Z"/>
        <path class="cls-1" d="M31.42,102.57c-.42.95-.72,6.15-.26,11.24.46,5.09,1.91,22.56,1.91,22.56,5.12,1.98,7.79-1.87,7.79-1.87,0,0,1.77-22.87,1.94-30.07.17-7.2-10.23-4.45-11.38-1.87Z"/>
        <path class="cls-20" d="M31.87,66.34c-5.07,3.83-4.28,8.91-4.03,11.92.24,2.76,3.14,21.78,3.9,26.18,1.14,6.54,10.98,7.01,10.98,2.13s4.17-36.3-1.07-40.62c-3.88-3.2-8.55-.54-9.78.39Z"/>
        <path class="cls-7" d="M31.87,66.34c-5.07,3.83-4.29,8.91-4.03,11.92.04.44.14,1.3.3,2.44,11.36-4.51,14.94-13.57,13.51-14.75-3.88-3.2-8.55-.54-9.78.39Z"/>
        <path class="cls-8" d="M35.46,25.14c-7.89-1.57-10.23,8.4-10.6,15.95-.37,7.55-6.84,23.72-6.84,23.72,4.47,7.85,26.25,7.46,26.25,7.46-.29-9.1,4.17-25.03,5.62-32.3,1.65-8.29-10.53-14.06-14.43-14.84Z"/>
        <path class="cls-16" d="M43.52,12.98c-.64.25-1.13.75-1.58,1.27-3.1,3.63-2.68,7.12-4.2,11.31,1.11.9,4.7,3.02,6.04,3.48.23.08-1.11-2.5-.26-4.35,1.73.91,3.37-1.25,5.64-3.74.67-.74.65-2.15.53-2.83-.17-.97,1.03-2.15,1.13-3.14.1-.98-6.45-2.35-7.31-2.01Z"/>
        <path class="cls-22" d="M48.37,8.97c.58-2.51-5.32-4.42-5.98-1.09-2.37-.84-5.56,1-4.87,4.54-1.85,2.21,1.7,6.85,1.24,9.19,0,0,3.14,1.55,4.61.94,1.72-.71,2.61-2.38,3.29-4.01,1.12-2.65,2.48-.97,2.96-3.38,1.15-.28,1.33,1.29,1.33,1.29,3.35-4.16.37-8.46-2.59-7.48Z"/>
        <path class="cls-17" d="M44.04,26.82c-2.82-2.22-4.07-2.73-5.52-3.11-.46-.12-.95.02-1.28.36l-1.15,1.17,9.01,4.98c.3-1.35-.36-2.85-1.06-3.41Z"/>
        <path class="cls-16" d="M57.61,68.44c.65-.57,2.29-1.27,2.34-1.58.1-.64-1.73-.33-3.1.32-.64.31-2.14-.17-2.54-.41-3.04-1.89-10.42-10.8-10.42-10.8l-6.53,3.06c3.4,3.53,14.07,10.24,15.3,12.47.57,1.02,1.79,3.57,2.32,3.4.53-.17,3.03-.5,3.49-.9.46-.4-.32-3.52.66-1.4.8,1.73,2.54,3.06,2.33,2.42-.31-.97-1.33-3.76-2.55-4.88-1.22-1.12-1.87-1.19-1.3-1.7Z"/>
        <path class="cls-17" d="M46.55,32.99c-3.64-1.7-6.77,1.2-8.79,6.5-1.7,4.47-3.49,11.61-1.62,18.55.73,2.74,8.16-.58,8.51-2.24.35-1.67.84-5.54,2.79-10.98,2.29-6.38,2.34-10.32-.89-11.83Z"/>
      </g>
      <g>
        <path class="cls-12" d="M31.94,69.33c.15.59-1.3,3.78.73,5.05,1.74,1.09,3.14,2.38,2.95,2.64-.37.52-4.03-1.12-5.44-2.22-1.41-1.1-3.06-1.87-3.22-1.43-.19.5,1.08,3.07.74,3.11-.44.05-1.18-.76-1.44-1.56-.43-1.28-1.71-1.91-1.96-4.36-.23-2.28-13.6-7.29-13.6-7.29l2.72-5.45s10.98,8.05,14.12,9.01c1.21.37,3.88.45,4.4,2.52Z"/>
        <path class="cls-21" d="M20.06,49.33c1.82,5.95,3.89,9.61,4.66,11.27.77,1.66-2.99,8.59-5.39,6.7-6.08-4.8-8.57-11.52-9.98-16.47-1.67-5.87-1.92-10.26,2.31-11.14,3.76-.78,6.25,2.66,8.39,9.64Z"/>
        <path class="cls-21" d="M20.53,150.84c.58,1.25-.49,3.26-1.53,4.16-1.15.99-8.03,6.95-12.5,5.24-.54-.21-1.08-.46-1.47-.89-.67-.74.27-4.78,1.02-5.51.97-.95,14-4.03,14.47-3Z"/>
        <path class="cls-15" d="M12.55,150.27c3.16-1.23,7.32-1.09,7.79-.07.58,1.25-1.17,3.38-2.21,4.29-2.98,2.61-8.98,5.4-11.15,4.67-.55-.18-1.57-.58-1.96-1-.67-.74-.05-3.33.74-4.1.75-.73,5.11-3.14,6.77-3.79Z"/>
        <path class="cls-21" d="M11.09,155.81c.35,0,.63.37.63.82s-.28.82-.63.82-.63-.37-.63-.82c0-.45.28-.82.63-.82Z"/>
        <path class="cls-21" d="M6.75,153.21l1.25,1.65-.32.59c-.62.89-.52,3.82-.52,3.82-1.44-.11-1.94-.95-1.94-.95-.37-2.89.8-4,.8-4l.74-1.12Z"/>
        <path class="cls-12" d="M13.92,151.57c.26.57-.23,2.17-3,3.34-.98.42-2.18.72-3.24.55.14-.43-.05-.95-.44-1.19-.39-.24-.86-.15-1.23.06.21-.73.33-1.48.46-2.23.78.13,6.63-2.32,7.44-.53Z"/>
        <path class="cls-3" d="M15.55,118.32c-.18,7.76-2.14,32.88-2.14,32.88,0,0-2.9,2.7-8.42.57,0,0-1.48-17.88-1.98-23.36-.49-5.48.4-10.22.86-11.25,1.24-2.78,11.86-6.61,11.68,1.15Z"/>
        <path class="cls-19" d="M5.72,76.97c1.32-1,5.38-1.58,9.47,1.97,7.35,6.4.27,36.58.27,41.68s-10.59,4.75-11.82-2.29c-.82-4.73-2.81-21.15-3.07-24.12-.28-3.24-.31-13.1,5.15-17.23Z"/>
        <path class="cls-21" d="M32.61,156.77c.58,1.25-.49,3.26-1.53,4.17-1.15.99-8.03,6.95-12.5,5.24-.54-.21-1.08-.46-1.47-.89-.67-.74.27-4.78,1.02-5.51.98-.95,14-4.03,14.47-3Z"/>
        <path class="cls-15" d="M24.64,156.2c3.16-1.23,7.32-1.09,7.79-.07.58,1.25-1.17,3.38-2.21,4.29-2.98,2.61-8.98,5.4-11.15,4.67-.55-.18-1.57-.58-1.96-1-.67-.74-.05-3.33.75-4.11.75-.72,5.1-3.14,6.77-3.79Z"/>
        <path class="cls-21" d="M23.17,161.73c.35,0,.63.37.63.82s-.28.82-.63.82-.63-.37-.63-.82.28-.82.63-.82Z"/>
        <path class="cls-21" d="M18.84,159.14l1.25,1.65-.32.59c-.62.89-.52,3.82-.52,3.82-1.44-.11-1.94-.94-1.94-.94-.37-2.89.79-4,.79-4l.74-1.12Z"/>
        <path class="cls-12" d="M26,157.5c.26.57-.23,2.16-2.99,3.34-.98.42-2.18.73-3.24.55.14-.43-.05-.95-.44-1.19-.39-.24-.86-.14-1.23.06.21-.73.33-1.48.46-2.23.78.13,6.63-2.32,7.44-.53Z"/>
        <path class="cls-1" d="M27.31,124.71c-.19,7.76-2.09,32.38-2.09,32.38,0,0-2.87,4.14-8.39,2.01,0,0-1.56-18.82-2.05-24.3-.49-5.48-.18-11.08.28-12.11,1.24-2.78,12.44-5.75,12.25,2.01Z"/>
        <path class="cls-20" d="M15.55,83.69c1.32-1,6.35-3.86,10.53-.42,5.65,4.64,1.15,38.64,1.15,43.74s-10.6,4.75-11.82-2.29c-.82-4.74-3.95-25.22-4.2-28.19-.28-3.24-1.12-8.71,4.34-12.83Z"/>
        <path class="cls-7" d="M11.53,99.16c-.17-1.23-.28-2.16-.32-2.63-.28-3.24-1.12-8.71,4.34-12.84,1.32-1,6.35-3.86,10.53-.42,1,.82.94,7.98.94,7.98,0,0-7.49,6.39-15.48,7.9Z"/>
        <path class="cls-15" d="M2.24,61.97c-1.2-8.05-.82-19.07,7.85-19.07,4.28,0,18.35,3.54,18.35,12.64,0,7.98-1.37,25.75.85,35.29,0,0-22.93,4.99-29.29-2.37,0,0,3.44-18.44,2.24-26.49Z"/>
        <path class="cls-12" d="M16.04,28.36c.84-.54,8.05-.47,8.14.59.09,1.06-.92,2.56-.54,3.55.27.69.59,2.17.03,3.1-1.87,3.1-3.15,5.73-5.17,5.13-.51,2.13,1.45,4.57,1.19,4.54-1.52-.21-5.75-1.69-7.11-2.41.73-4.75-.45-8.34,2.06-12.83.36-.64.78-1.27,1.4-1.67Z"/>
        <path class="cls-3" d="M13.77,23.2c0-3.66,6.63-2.87,6.54-.1,2.92-1.67,6.98,2.25,4.31,7.35,0,0-.53-1.62-1.68-1.08,0,2.65-1.8,1.16-2.42,4.2-.38,1.86-.97,3.82-2.63,4.93-1.43.95-5.07-.02-5.07-.02,0-2.57-4.73-6.72-3.24-9.45-1.48-3.6,1.51-6.21,4.19-5.82Z"/>
        <path class="cls-21" d="M13.01,40.73c1.61.09,3.04.37,6.48,2.12.86.44,1.87,1.89,1.84,3.37l-10.56-3.37.97-1.48c.28-.42.77-.67,1.27-.65Z"/>
        <path class="cls-12" d="M37.58,82.65c.47.18,2.16.36,2.77-.1,1.31-.98,3.18-1.68,3.2-.99.01.34-1.58,1.43-2.14,2.17-.5.65.2.59,1.73,1.52,1.53.93,3.19,3.66,3.72,4.62.35.63-1.77-.41-2.97-2.07-1.48-2.04,0,1.1-.4,1.61-.4.51-2.97,1.39-3.49,1.68-.53.29-2.28-2.2-3.17-3.1-2.31-2.35-17.39-5.78-17.39-10.52,0-1.52,3.57-4.84,4.86-4.04,3.23,2,9.66,7.86,13.27,9.22Z"/>
        <path class="cls-21" d="M23.44,48.84c3.73.92,4.5,5.09,3.42,12.31-.91,6.15-.62,10.35-.64,12.18-.02,1.83-6.1,8.21-7.45,5.47-3.42-6.95-3.07-15.82-2.21-20.9,1.02-6.02,2.68-10.09,6.88-9.06Z"/>
      </g>
      <g>
        <path class="cls-16" d="M98.6,7.99c.73.51,3.17-.17,3.34.12.82,1.35-3.42,1.9-5.09,1.49-2.14-.53-10.21,12.09-10.21,12.09l-4.74-3.45s9.39-9.12,10.81-11.95c.54-1.09.87-2.96,3.09-3.77.54-.2,3.45,2.27,4.53.23.92-1.75,2.04-2.88,2.3-2.72.53.32-1.11,3.97-2.23,5.28-1.13,1.3-2.45,2.25-1.8,2.7Z"/>
        <path class="cls-2" d="M69.27,30.55c-5.84.64-10.04.18-10.2-3.98-.13-3.69,3.52-5.5,10.49-6.41,5.93-.77,9.74-2.15,11.44-2.62,1.7-.47,7.67,4.21,5.49,6.18-5.52,5-12.3,6.28-17.23,6.82Z"/>
        <path class="cls-5" d="M73.21,129.6c-1.1.96-7.73,6.69-12.03,5.04-.52-.2-1.04-.44-1.41-.85-.65-.71.26-4.6.98-5.3.94-.92,13.47-3.88,13.92-2.89.56,1.2-.47,3.14-1.47,4.01Z"/>
        <path class="cls-11" d="M72.38,129.11c-2.86,2.51-8.64,5.2-10.72,4.5-.53-.17-1.51-.55-1.88-.97-.65-.71-.05-3.21.71-3.95.72-.7,4.91-3.02,6.52-3.65,3.04-1.18,7.04-1.05,7.5-.07.56,1.21-1.13,3.26-2.12,4.13Z"/>
        <path class="cls-5" d="M65.59,131.95c-.33,0-.61-.35-.61-.79s.27-.79.61-.79.61.35.61.79-.27.79-.61.79Z"/>
        <path class="cls-5" d="M61.82,133.71c-1.39-.1-1.87-.91-1.87-.91-.36-2.78.77-3.85.77-3.85l.71-1.08,1.2,1.59-.31.57c-.6.86-.5,3.68-.5,3.68Z"/>
        <path class="cls-16" d="M65.43,129.51c-.95.4-2.1.7-3.12.53.13-.42-.05-.91-.42-1.14-.38-.23-.83-.14-1.18.06.2-.7.32-1.43.44-2.15.75.13,6.38-2.23,7.16-.51.25.55-.22,2.08-2.88,3.21Z"/>
        <path class="cls-3" d="M59.73,126.49s-1.43-17.2-1.9-22.47c-.47-5.27.39-9.83.83-10.82,1.19-2.67,11.41-6.36,11.23,1.11-.18,7.46-2.06,31.64-2.06,31.64,0,0-2.79,2.6-8.1.55Z"/>
        <path class="cls-19" d="M58.43,94.31c-.79-4.56-2.71-20.35-2.96-23.21-.27-3.12-.3-12.61,4.95-16.58,1.27-.96,5.18-1.52,9.11,1.9,7.07,6.16.26,35.2.26,40.1s-10.19,4.57-11.37-2.21Z"/>
        <path class="cls-5" d="M84.84,135.3c-1.1.95-7.73,6.69-12.03,5.04-.52-.2-1.04-.44-1.41-.86-.64-.71.26-4.6.98-5.3.94-.92,13.47-3.88,13.92-2.89.56,1.2-.47,3.14-1.47,4.01Z"/>
        <path class="cls-11" d="M84,134.81c-2.86,2.51-8.64,5.2-10.72,4.5-.53-.17-1.51-.55-1.88-.97-.64-.71-.05-3.21.72-3.95.72-.7,4.91-3.02,6.51-3.65,3.04-1.18,7.04-1.05,7.5-.07.55,1.21-1.12,3.26-2.12,4.13Z"/>
        <path class="cls-5" d="M77.22,137.65c-.34,0-.61-.35-.61-.79s.27-.79.61-.79.61.35.61.79c0,.43-.27.79-.61.79Z"/>
        <path class="cls-5" d="M73.44,139.42c-1.39-.1-1.87-.91-1.87-.91-.36-2.78.76-3.85.76-3.85l.71-1.08,1.2,1.59-.31.57c-.6.86-.5,3.68-.5,3.68Z"/>
        <path class="cls-16" d="M77.06,135.21c-.95.4-2.1.7-3.12.53.13-.42-.05-.91-.42-1.14-.37-.23-.83-.14-1.18.06.2-.7.32-1.43.45-2.15.75.13,6.38-2.23,7.16-.51.25.55-.22,2.08-2.88,3.21Z"/>
        <path class="cls-1" d="M71.12,133.55s-1.5-18.1-1.98-23.38c-.47-5.27-.17-10.66.27-11.65,1.19-2.68,11.97-5.53,11.79,1.93-.18,7.46-2.02,31.16-2.02,31.16,0,0-2.76,3.98-8.07,1.93Z"/>
        <path class="cls-20" d="M69.75,100.46c-.79-4.56-3.8-24.27-4.04-27.12-.27-3.12-1.08-8.38,4.17-12.35,1.27-.96,6.11-3.71,10.13-.4,5.43,4.47,1.11,37.18,1.11,42.08,0,5.06-10.19,4.57-11.37-2.21Z"/>
        <path class="cls-7" d="M66.02,75.87c-.16-1.19-.27-2.07-.31-2.53-.27-3.12-1.08-8.38,4.17-12.35,1.27-.96,6.11-3.71,10.13-.4,1.48,1.22-2.23,10.61-14,15.28Z"/>
        <path class="cls-11" d="M54.92,65.57s3.31-17.74,2.15-25.49c-1.15-7.75-.79-18.35,7.55-18.35,4.12,0,17.66,3.41,17.66,12.16,0,7.68-1.31,24.77.82,33.96,0,0-22.06,4.8-28.19-2.28Z"/>
        <path class="cls-16" d="M77.67,11.73c.26.66.57,2.09.03,2.98-1.8,2.99-3.03,5.51-4.97,4.94-.49,2.05,1.4,4.4,1.14,4.36-1.46-.2-5.53-1.63-6.84-2.32.7-4.57-.44-8.02,1.98-12.34.35-.61.75-1.23,1.35-1.61.81-.52,7.74-.45,7.83.57.09,1.02-.89,2.46-.52,3.42Z"/>
        <path class="cls-7" d="M77,8.72c0,2.55-1.73,1.11-2.33,4.04-.37,1.79-.93,3.68-2.53,4.74-1.37.92-4.88-.02-4.88-.02,0-2.47-4.55-6.46-3.11-9.09-1.42-3.46,1.45-5.98,4.03-5.6,0-3.52,6.38-2.76,6.3-.1,2.81-1.6,6.71,2.17,4.15,7.07,0,0-.51-1.56-1.62-1.04Z"/>
        <path class="cls-17" d="M66.22,20.28c.27-.41.74-.65,1.23-.62,1.55.09,2.93.35,6.24,2.04.83.42,1.8,1.81,1.77,3.25l-10.16-3.24.93-1.43Z"/>
        <path class="cls-16" d="M82.61,73.89c.44-2.39-.76.73-1.39.79-.63.06-2.93-1.15-3.49-1.32-.55-.17.02-3.05.07-4.27.11-3.16-3.96-17.62-3.96-17.62l5.81-.76s.92,11.95,2.36,15.37c.19.45,1.18,1.75,1.91,1.87,1.55.26,3.28,1.1,2.81,1.58-.23.24-2.04-.15-2.93-.06-.79.08-.27.53.09,2.21.37,1.68-.44,4.65-.76,5.66-.21.66-.89-1.51-.53-3.45Z"/>
        <path class="cls-17" d="M80.16,51.03c-.02,1.76-6.15,6.22-7.45,3.59-3.29-6.68-2.68-13.55-1.85-18.44.98-5.79,2.58-9.71,6.62-8.72,3.59.88,4.33,4.89,3.29,11.84-.88,5.92-.6,9.95-.61,11.72Z"/>
      </g>
      <g>
        <path class="cls-13" d="M90.5,78.37c-1.41-.2-2.94.21-2.34-.22.68-.48,1.28-1.1,1.09-1.81-.15-.54-.75.84-1.72.98-1.11.17-2.13,1.46-3.23,1.5,0,0-.14,3.28.31,3.28.45,0,1.91.23,2.9.39.99.16,1.97,1.49,2.73,1.29.46-.12,1.69-1.98,1.82-2.49.13-.5-.95-1.69-.21-1.31.13.07,1.29.81,1.42.89,1.31.81,2.14.49,1.74.18-.69-.54-3.09-2.5-4.5-2.7Z"/>
        <path class="cls-13" d="M59.1,57l4.27.71c-1.25-3.46.53-3.93.53-3.93l-1.78-2.99-3.02,6.21Z"/>
        <path class="cls-10" d="M60.85,88.67c-.1-2.56,1.45-7.83,3.49-13.46.93-2.56-2.77-4.99-4.83-2.62-2.07,2.37-2.12,16.19-2.12,16.19,1.96,1.59,3.47-.11,3.47-.11Z"/>
        <path class="cls-10" d="M60.15,97.11c.61-1.61,1.25-.63,1.72-.93.47-.3,1.44-2.61,1.42-3.13-.02-.61-2.17-2.16-2.5-4.82-.06-.48-3.4.18-3.4.18,0,0-.84,4.03-.73,5.08.1,1.05-.92,2.43-.34,2.3.58-.13,1.3-1.36,1.68-2.06.37-.69,1.06.4,1.2,1.92.14,1.52-1.29,4.51-.61,4.67.44.11,1.07-1.94,1.56-3.22Z"/>
        <path class="cls-13" d="M52.53,100.17s2.81,7.08.56,12.11c-3.65,8.17-2.4,25.76-2.7,27.83-.3,2.06,3.41,4.28,4.32.15.91-4.13,5.25-22.29,7.17-26.64,1.92-4.35,1.17-12.49,1.17-12.49l-10.52-.95Z"/>
        <path class="cls-13" d="M60.49,105.7c1.75,3.61,3.59,14.28,2.68,20.95-.91,6.66,1.03,20.02,1.08,22.11.05,2.09,3.88,3.62,4.08-.62.2-4.24,2.21-21.11,3.36-25.78,1.15-4.67-.82-18.87-.82-18.87,0,0-12.13-1.4-10.37,2.21Z"/>
        <path class="cls-4" d="M70.8,153.73c-2.51-1.51-2.21-5.98-2.21-5.98-3.23.13-4.73-.5-4.73-.5,0,1.36-1.55,3.69-1.74,5.74-.17,1.83,1.35,2.91,1.35,4.5h1.33l-.67-3.73c2.18,0,4.95,3.77,7.66,3.74,2.84-.03,3.65-.89,3.86-1.79.22-.9-2.35-.46-4.85-1.98Z"/>
        <path class="cls-4" d="M57.25,146.44c-2.5-1.52-2.21-5.98-2.21-5.98-3.23.13-4.73-.5-4.73-.5,0,1.36-1.55,3.69-1.74,5.74-.17,1.83,1.35,2.91,1.35,4.5h1.33l-.67-3.73c2.17,0,4.95,3.77,7.66,3.74,2.84-.03,3.65-.9,3.86-1.79.22-.9-2.35-.46-4.85-1.98Z"/>
        <path class="cls-23" d="M54.66,76.15s-.82,2.97-2.97,6.61c-2.16,3.64-4.17,9.02-3.44,13.17.73,4.1-.83,20.33-2.33,28.63,0,0,7.39,1.43,10.18,3.4,9.78,6.89,20.36.45,20.36.45,0-17.67-7.38-40.58-8.88-50.71l-12.93-1.54Z"/>
        <path class="cls-9" d="M69.8,66.44c-.63-1.63-1.19-2.67-1.88-5.28-.69-2.6-4.78-4.84-8.82-4.16-4.43.74-5.18,7.08-5.19,11.08-.01,3.71.38,7.91-1.76,13.89,4.69,4.2,12.39,6.21,17.23,3.62-.59-4.03-2.58-10.83-1.7-13.88.15-.51,3.36-2.1,2.12-5.27Z"/>
        <path class="cls-13" d="M66.73,45.89c.11-.51.01-1.45-.04-1.91-.48-4.01-6.18-.3-8.14,2.96-1.96,3.26,6.1,9.05,7.76,6.19,1.95-3.36,1.03-5.9.93-6.04-.39-.54-.59-.74-.5-1.2Z"/>
        <path class="cls-18" d="M61,39.28c-4.34,1.13-5.76-1.44-8.06,3.66-1.9,4.2-5.21.21-7.18,5.08-1.96,4.87,1.04,5.01-2.62,8.01-3.55,2.9.19,7.53,1.2,10.05,1.01,2.52,2.84,3.79.62,7.44,0,0,9.08-.12,8.36-6.14-.72-6.02,5.02-3.14,4.51-7.39-.41-3.41,3.97-2,3.84-4.15-.12-2.16,3.95-3.1,1.22-6.98-1.62-2.3,4.61-3.75,4.31-6.24-.2-1.66-1.85-4.45-6.19-3.33Z"/>
        <path class="cls-13" d="M62.26,47.27c-.31.71-.04,1.77.41,2.42.45.64.84.43.77.09-.09-.43.38-1.19.14-2.29-.07-.31-1.01-.93-1.32-.21Z"/>
        <path class="cls-13" d="M68.63,66.21c-.22-5.26-2-6.94-3.15-7.34-3.36-1.16-4.87,2.86-4.22,7.21.62,4.15,1.94,10.11,5.31,14.57,1.33,1.75,3.9-3.1,3.66-4.4-.24-1.3-1.41-5.56-1.59-10.04Z"/>
        <path class="cls-13" d="M85.08,78.83c-2.38.23-12.56-2.29-15.17-2.68-1.19-.18-5.32,3.02-3.01,4.82,2.32,1.8,18.43,1.11,18.43,1.11,1.37-1.9-.25-3.25-.25-3.25Z"/>
      </g>
    </g>
  </g>
</svg>