<?xml version="1.0" encoding="UTF-8"?>
<svg id="_レイヤー_2" data-name="レイヤー 2" xmlns="http://www.w3.org/2000/svg" xmlns:xlink="http://www.w3.org/1999/xlink" viewBox="0 0 108.45 136.57">
  <defs>
    <style>
      .cls-1 {
        fill: #f1f1f1;
      }

      .cls-2 {
        fill: #a28331;
      }

      .cls-3 {
        fill: #d8d8d9;
      }

      .cls-4 {
        fill: #d6865c;
      }

      .cls-5 {
        fill: #5e816a;
      }

      .cls-6 {
        fill: url(#_名称未設定グラデーション_8);
      }

      .cls-7 {
        fill: #da926b;
      }

      .cls-8 {
        fill: #4077a3;
      }

      .cls-9 {
        fill: #e6e6e5;
      }

      .cls-10 {
        fill: #38698f;
      }

      .cls-11 {
        fill: #6a8e74;
      }

      .cls-12 {
        fill: #b2b1b1;
      }

      .cls-13 {
        fill: #bfbebe;
      }

      .cls-14 {
        fill: #b39135;
      }
    </style>
    <linearGradient id="_名称未設定グラデーション_8" data-name="名称未設定グラデーション 8" x1="34.6" y1="89.99" x2="40.91" y2="89.99" gradientTransform="translate(18.82 38.87) rotate(5.72)" gradientUnits="userSpaceOnUse">
      <stop offset="0" stop-color="#d8d8d9"/>
      <stop offset="1" stop-color="#b2b1b1"/>
    </linearGradient>
  </defs>
  <g id="contents">
    <g>
      <path class="cls-8" d="M2.54,93.24l55.71-25.13c1.96-.89,4.78-.72,6.3.37l42.97,30.9c1.51,1.09,1.15,2.69-.81,3.58l-55.71,25.13c-1.96.89-4.78.72-6.3-.37L1.72,96.82c-1.51-1.09-1.15-2.69.81-3.58Z"/>
      <path class="cls-3" d="M1.72,96.82c-.7-.5-.99-1.12-.92-1.72h0S0,103.02,0,103.02h0c-.08.6.22,1.22.92,1.72l42.97,30.9.79-7.92L1.72,96.82Z"/>
      <path class="cls-12" d="M108.44,100.94c-.01.75-.61,1.5-1.74,2.01l-55.71,25.13-.79,7.92,55.71-25.13c1.13-.51,1.73-1.26,1.74-2.02h0s.79-7.91.79-7.91h0Z"/>
      <path class="cls-6" d="M44.69,127.72l-.79,7.92c1.51,1.09,4.33,1.25,6.3.37l.79-7.92c-1.96.89-4.78.72-6.3-.37Z"/>
    </g>
    <path class="cls-10" d="M18.48,95.6l38.41-17.33c1.35-.61,3.3-.5,4.34.25l29.63,21.3c1.04.75.79,1.85-.56,2.47l-38.41,17.33c-1.35.61-3.3.5-4.34-.25l-29.63-21.3c-1.04-.75-.79-1.85.56-2.47Z"/>
    <g>
      <polygon class="cls-4" points="73.03 100.24 75.06 101.76 76.66 101.6 74.42 100.21 73.03 100.24"/>
      <polygon class="cls-4" points="69.13 97.3 71.27 98.92 72.31 98.89 69.73 97.28 69.13 97.3"/>
      <polygon class="cls-9" points="35.53 82.48 41.77 86.28 47.23 87.87 54.23 87.62 44.55 81.58 35.53 82.48"/>
      <polygon class="cls-9" points="48.29 89.22 45.05 88.27 58.3 96.33 67.63 95.97 56.33 88.92 48.29 89.22"/>
      <polygon class="cls-9" points="60.8 103.19 73.26 101.94 67.19 97.38 53.21 97.91 60.8 103.19"/>
      <polygon class="cls-5" points="45.01 88.26 42.45 87.51 40.36 88.84 40 88.74 51.31 96.6 58.25 96.33 45.01 88.26"/>
      <polygon class="cls-5" points="35.52 82.48 31.56 82.88 37.41 86.94 38.58 87.29 40.67 85.96 41.74 86.27 35.52 82.48"/>
      <polygon class="cls-12" points="75.06 101.76 73.03 100.24 74.42 100.21 72.31 98.89 71.27 98.92 69.13 97.3 69.73 97.28 67.63 95.97 58.3 96.33 45.05 88.27 48.29 89.22 56.33 88.92 54.23 87.62 47.23 87.87 41.77 86.28 35.53 82.48 44.55 81.58 42.48 80.28 29.67 81.56 31.56 82.88 35.52 82.48 41.74 86.27 40.67 85.96 38.58 87.29 37.41 86.94 40 88.74 40.36 88.84 42.45 87.51 45.01 88.26 58.25 96.33 51.31 96.6 53.21 97.91 67.19 97.38 73.26 101.94 60.8 103.19 62.69 104.5 78.73 102.9 76.66 101.6 75.06 101.76"/>
      <polygon class="cls-7" points="86.2 95.67 74.42 100.21 76.66 101.6 86.99 96.25 86.2 95.67"/>
      <polygon class="cls-7" points="81.65 92.35 69.73 97.28 72.31 98.89 84.29 94.28 81.65 92.35"/>
      <polygon class="cls-1" points="46.7 80.47 44.55 81.58 54.23 87.62 56.81 86.56 46.7 80.47"/>
      <polygon class="cls-8" points="53.74 82.84 57.09 84.86 61.63 82.95 57.67 79.6 60.59 76.95 59.69 76.29 57.65 74.79 48.36 79.6 53.74 82.84"/>
      <polygon class="cls-7" points="70.25 87.25 65.4 89.86 72.32 94.03 79.75 90.96 76.71 88.74 74 89.86 70.25 87.25"/>
      <polygon class="cls-1" points="61.63 82.95 57.09 84.86 64.44 89.28 65.4 89.86 70.25 87.25 74 89.86 76.71 88.74 72.28 85.5 60.59 76.95 57.67 79.6 61.63 82.95"/>
      <polygon class="cls-1" points="58.96 87.85 56.33 88.92 67.63 95.97 70.48 94.79 58.96 87.85"/>
      <path class="cls-13" d="M57.4,72.55l-14.93,7.73,2.07,1.29,2.14-1.11,10.12,6.09-2.58,1.06,2.1,1.31,2.63-1.08,11.53,6.94-2.86,1.18,2.1,1.31,11.93-4.93,2.64,1.93-11.98,4.61,2.11,1.32,11.78-4.54.79.58-10.33,5.35,2.07,1.29,11.81-6.12-33.14-24.23ZM59.69,76.29l.9.66,11.69,8.55,4.43,3.24,3.04,2.22-7.43,3.07-6.93-4.17-.96-.58-7.34-4.42-3.35-2.02-5.38-3.24,9.28-4.81,2.04,1.49Z"/>
      <polygon class="cls-1" points="39.77 103.22 48.43 109.28 60.77 103.18 53.19 97.9 39.77 103.22"/>
      <path class="cls-11" d="M32.66,87.9l-1.71,2.25,3.19,8.13,4.49-2.74,6.12,3.64,6.54-2.59-11.3-7.86-7.33-.83ZM48.43,95.82l-1.78.88-5.2-.73-3.32-2.12-3.89-1.08-1.66-2.26,1.06-1.5,6.28.86.8,1.56-3.5-.78-1.21.69,1.3,1.28,8.07,1.07,3.04,2.13Z"/>
      <polygon class="cls-11" points="22.57 87.31 19.33 88.92 31.34 97.32 28.54 90.2 22.57 87.31"/>
      <polygon class="cls-11" points="24.3 86.46 28.97 88.72 30.88 86.2 37.41 86.94 31.56 82.87 24.3 86.46"/>
      <polygon class="cls-11" points="39.16 97.69 35.26 100.07 37.89 101.9 42.9 99.92 39.16 97.69"/>
      <path class="cls-13" d="M48.43,109.28l-8.66-6.06,13.41-5.32-1.89-1.32-6.54,2.59-6.12-3.64-4.49,2.74-3.19-8.13,1.71-2.25,7.33.83-2.58-1.79-6.52-.74-1.91,2.52-4.67-2.26,7.25-3.58-1.89-1.31-13.9,6.87,32.86,22.99,14.04-6.93-1.89-1.31-12.35,6.1ZM19.33,88.92l3.25-1.6,5.97,2.89,2.8,7.12-12.01-8.4ZM35.26,100.07l3.9-2.37,3.74,2.22-5.01,1.99-2.62-1.84Z"/>
      <polygon class="cls-8" points="37.22 90.64 40.73 91.43 39.92 89.87 33.64 89.01 32.58 90.52 34.23 92.77 38.12 93.86 41.45 95.97 46.65 96.7 48.43 95.82 45.39 93.69 37.31 92.62 36.01 91.34 37.22 90.64"/>
    </g>
    <g>
      <path class="cls-2" d="M63.75,2.11c-12.25-5.9-23.35.99-24.79,15.39-1.44,14.4,18.72,73.12,18.72,73.12,0,0,24.2-37.36,25.64-51.76,1.44-14.4-7.32-30.85-19.57-36.75ZM59.83,41.26c-6.37-3.07-10.93-11.63-10.18-19.12.75-7.49,9.08-13.96,12.9-8s10.93,11.63,10.18,19.12-6.52,11.07-12.9,8Z"/>
      <polygon class="cls-2" points="57.68 90.62 48.83 94.61 48.86 84.12 57.71 80.13 57.68 90.62"/>
      <polygon class="cls-2" points="49 11.78 40.16 15.76 40.18 5.27 49.03 1.28 49 11.78"/>
      <path class="cls-14" d="M54.91,6.1c-12.25-5.9-23.35.99-24.79,15.39-1.44,14.4,18.72,73.12,18.72,73.12,0,0,24.2-37.36,25.64-51.76,1.44-14.4-7.32-30.85-19.57-36.75ZM50.99,45.25c-6.37-3.07-10.93-11.63-10.18-19.12s6.52-11.07,12.9-8c6.37,3.07,10.93,11.63,10.18,19.12s-6.52,11.07-12.9,8Z"/>
    </g>
  </g>
</svg>